<?xml version="1.0" encoding="utf-8" standalone="no"?>
<!DOCTYPE svg PUBLIC "-//W3C//DTD SVG 1.1//EN"
  "http://www.w3.org/Graphics/SVG/1.1/DTD/svg11.dtd">
<svg xmlns:xlink="http://www.w3.org/1999/xlink" width="720pt" height="475.2pt" viewBox="0 0 720 475.2" xmlns="http://www.w3.org/2000/svg" version="1.1">
 <metadata>
  <rdf:RDF xmlns:dc="http://purl.org/dc/elements/1.1/" xmlns:cc="http://creativecommons.org/ns#" xmlns:rdf="http://www.w3.org/1999/02/22-rdf-syntax-ns#">
   <cc:Work>
    <dc:type rdf:resource="http://purl.org/dc/dcmitype/StillImage"/>
    <dc:date>2026-07-16T15:35:16.209416</dc:date>
    <dc:format>image/svg+xml</dc:format>
    <dc:creator>
     <cc:Agent>
      <dc:title>Matplotlib v3.11.0, https://matplotlib.org/</dc:title>
     </cc:Agent>
    </dc:creator>
   </cc:Work>
  </rdf:RDF>
 </metadata>
 <defs>
  <style type="text/css">*{stroke-linejoin: round; stroke-linecap: butt}</style>
 </defs>
 <g id="figure_1">
  <g id="patch_1">
   <path d="M 0 475.2 
L 720 475.2 
L 720 0 
L 0 0 
z
" style="fill: #0a1628"/>
  </g>
  <g id="axes_1">
   <g id="patch_2">
    <path d="M 44.64 234.513421 
L 699.84 234.513421 
L 699.84 54.648 
L 44.64 54.648 
z
" style="fill: #0a1628"/>
   </g>
   <g id="matplotlib.axis_1">
    <g id="xtick_1">
     <g id="line2d_1"/>
    </g>
    <g id="xtick_2">
     <g id="line2d_2"/>
    </g>
    <g id="xtick_3">
     <g id="line2d_3"/>
    </g>
    <g id="xtick_4">
     <g id="line2d_4"/>
    </g>
    <g id="xtick_5">
     <g id="line2d_5"/>
    </g>
    <g id="xtick_6">
     <g id="line2d_6"/>
    </g>
    <g id="xtick_7">
     <g id="line2d_7"/>
    </g>
    <g id="xtick_8">
     <g id="line2d_8"/>
    </g>
   </g>
   <g id="matplotlib.axis_2">
    <g id="ytick_1">
     <g id="line2d_9">
      <path d="M 44.64 234.513421 
L 699.84 234.513421 
" clip-path="url(#p024803a717)" style="fill: none; stroke: #1b2a44; stroke-width: 0.8; stroke-linecap: square"/>
     </g>
     <g id="line2d_10"/>
     <g id="text_1">
      <!-- 0 M -->
      <g style="fill: #9fb0c6" transform="translate(24.788125 237.932366) scale(0.09 -0.09)">
       <defs>
        <path id="DejaVuSans-13" d="M 2034 4250 
Q 1547 4250 1301 3770 
Q 1056 3291 1056 2328 
Q 1056 1369 1301 889 
Q 1547 409 2034 409 
Q 2525 409 2770 889 
Q 3016 1369 3016 2328 
Q 3016 3291 2770 3770 
Q 2525 4250 2034 4250 
z
M 2034 4750 
Q 2819 4750 3233 4129 
Q 3647 3509 3647 2328 
Q 3647 1150 3233 529 
Q 2819 -91 2034 -91 
Q 1250 -91 836 529 
Q 422 1150 422 2328 
Q 422 3509 836 4129 
Q 1250 4750 2034 4750 
z
" transform="scale(0.015625)"/>
        <path id="DejaVuSans-3" transform="scale(0.015625)"/>
        <path id="DejaVuSans-30" d="M 628 4666 
L 1569 4666 
L 2759 1491 
L 3956 4666 
L 4897 4666 
L 4897 0 
L 4281 0 
L 4281 4097 
L 3078 897 
L 2444 897 
L 1241 4097 
L 1241 0 
L 628 0 
L 628 4666 
z
" transform="scale(0.015625)"/>
       </defs>
       <use xlink:href="#DejaVuSans-13"/>
       <use xlink:href="#DejaVuSans-3" transform="translate(63.625 0)"/>
       <use xlink:href="#DejaVuSans-30" transform="translate(95.40625 0)"/>
      </g>
     </g>
    </g>
    <g id="ytick_2">
     <g id="line2d_11">
      <path d="M 44.64 183.1233 
L 699.84 183.1233 
" clip-path="url(#p024803a717)" style="fill: none; stroke: #1b2a44; stroke-width: 0.8; stroke-linecap: square"/>
     </g>
     <g id="line2d_12"/>
     <g id="text_2">
      <!-- 1 M -->
      <g style="fill: #9fb0c6" transform="translate(24.788125 186.542246) scale(0.09 -0.09)">
       <defs>
        <path id="DejaVuSans-14" d="M 794 531 
L 1825 531 
L 1825 4091 
L 703 3866 
L 703 4441 
L 1819 4666 
L 2450 4666 
L 2450 531 
L 3481 531 
L 3481 0 
L 794 0 
L 794 531 
z
" transform="scale(0.015625)"/>
       </defs>
       <use xlink:href="#DejaVuSans-14"/>
       <use xlink:href="#DejaVuSans-3" transform="translate(63.625 0)"/>
       <use xlink:href="#DejaVuSans-30" transform="translate(95.40625 0)"/>
      </g>
     </g>
    </g>
    <g id="ytick_3">
     <g id="line2d_13">
      <path d="M 44.64 131.73318 
L 699.84 131.73318 
" clip-path="url(#p024803a717)" style="fill: none; stroke: #1b2a44; stroke-width: 0.8; stroke-linecap: square"/>
     </g>
     <g id="line2d_14"/>
     <g id="text_3">
      <!-- 2 M -->
      <g style="fill: #9fb0c6" transform="translate(24.788125 135.152126) scale(0.09 -0.09)">
       <defs>
        <path id="DejaVuSans-15" d="M 1228 531 
L 3431 531 
L 3431 0 
L 469 0 
L 469 531 
Q 828 903 1448 1529 
Q 2069 2156 2228 2338 
Q 2531 2678 2651 2914 
Q 2772 3150 2772 3378 
Q 2772 3750 2511 3984 
Q 2250 4219 1831 4219 
Q 1534 4219 1204 4116 
Q 875 4013 500 3803 
L 500 4441 
Q 881 4594 1212 4672 
Q 1544 4750 1819 4750 
Q 2544 4750 2975 4387 
Q 3406 4025 3406 3419 
Q 3406 3131 3298 2873 
Q 3191 2616 2906 2266 
Q 2828 2175 2409 1742 
Q 1991 1309 1228 531 
z
" transform="scale(0.015625)"/>
       </defs>
       <use xlink:href="#DejaVuSans-15"/>
       <use xlink:href="#DejaVuSans-3" transform="translate(63.625 0)"/>
       <use xlink:href="#DejaVuSans-30" transform="translate(95.40625 0)"/>
      </g>
     </g>
    </g>
    <g id="ytick_4">
     <g id="line2d_15">
      <path d="M 44.64 80.34306 
L 699.84 80.34306 
" clip-path="url(#p024803a717)" style="fill: none; stroke: #1b2a44; stroke-width: 0.8; stroke-linecap: square"/>
     </g>
     <g id="line2d_16"/>
     <g id="text_4">
      <!-- 3 M -->
      <g style="fill: #9fb0c6" transform="translate(24.788125 83.762005) scale(0.09 -0.09)">
       <defs>
        <path id="DejaVuSans-16" d="M 2597 2516 
Q 3050 2419 3304 2112 
Q 3559 1806 3559 1356 
Q 3559 666 3084 287 
Q 2609 -91 1734 -91 
Q 1441 -91 1130 -33 
Q 819 25 488 141 
L 488 750 
Q 750 597 1062 519 
Q 1375 441 1716 441 
Q 2309 441 2620 675 
Q 2931 909 2931 1356 
Q 2931 1769 2642 2001 
Q 2353 2234 1838 2234 
L 1294 2234 
L 1294 2753 
L 1863 2753 
Q 2328 2753 2575 2939 
Q 2822 3125 2822 3475 
Q 2822 3834 2567 4026 
Q 2313 4219 1838 4219 
Q 1578 4219 1281 4162 
Q 984 4106 628 3988 
L 628 4550 
Q 988 4650 1302 4700 
Q 1616 4750 1894 4750 
Q 2613 4750 3031 4423 
Q 3450 4097 3450 3541 
Q 3450 3153 3228 2886 
Q 3006 2619 2597 2516 
z
" transform="scale(0.015625)"/>
       </defs>
       <use xlink:href="#DejaVuSans-16"/>
       <use xlink:href="#DejaVuSans-3" transform="translate(63.625 0)"/>
       <use xlink:href="#DejaVuSans-30" transform="translate(95.40625 0)"/>
      </g>
     </g>
    </g>
   </g>
   <g id="line2d_17">
    <path d="M 68.408378 122.078724 
L 75.359507 130.432445 
L 81.637947 108.801521 
L 88.589076 118.746075 
L 95.315975 125.573149 
L 102.267105 122.359365 
L 108.994004 111.183093 
L 115.945133 123.045423 
L 122.896263 152.737556 
L 129.623162 143.534202 
L 136.574292 129.612516 
L 143.301191 116.534501 
L 150.25232 117.492258 
L 157.20345 122.77763 
L 163.706119 157.312201 
L 170.657248 231.156772 
L 177.384148 232.015347 
L 184.335277 225.498617 
L 191.062177 202.804072 
L 198.013306 192.406155 
L 204.964435 190.634635 
L 211.691335 182.571576 
L 218.642464 170.453734 
L 225.369363 159.038961 
L 232.320493 168.243702 
L 239.271622 181.825237 
L 245.550062 153.817314 
L 252.501191 150.252175 
L 259.22809 137.220977 
L 266.17922 127.102417 
L 272.906119 112.530337 
L 279.857248 128.551258 
L 286.808378 149.151039 
L 293.535277 132.739296 
L 300.486407 119.978821 
L 307.213306 105.799773 
L 314.164435 121.870131 
L 321.115565 125.896445 
L 327.394004 93.887235 
L 334.345133 100.00934 
L 341.072033 107.823978 
L 348.023162 106.527405 
L 354.750062 86.692515 
L 361.701191 94.435927 
L 368.65232 122.412914 
L 375.37922 110.407976 
L 382.330349 101.16423 
L 389.057248 83.704539 
L 396.008378 85.592869 
L 402.959507 100.374004 
L 409.237947 81.543739 
L 416.189076 89.316083 
L 422.915975 99.520774 
L 429.867105 95.675251 
L 436.594004 79.454165 
L 443.545133 91.139713 
L 450.496263 122.951996 
L 457.223162 108.182219 
L 464.174292 98.109755 
L 470.901191 79.252819 
L 477.85232 84.433662 
L 484.80345 93.796891 
L 491.306119 76.669283 
L 498.257248 101.266753 
L 504.984148 109.185714 
L 511.935277 107.227185 
L 518.662177 102.027224 
L 525.613306 111.293634 
L 532.564435 136.910529 
L 539.291335 126.963252 
L 546.242464 111.082574 
L 552.969363 90.452679 
L 559.920493 92.725047 
L 566.871622 106.568106 
L 573.150062 83.607874 
L 580.101191 102.219937 
L 586.82809 114.480284 
L 593.77922 111.834155 
L 600.506119 99.278264 
L 607.457248 115.07533 
L 614.408378 144.13264 
L 621.135277 129.130116 
L 628.086407 112.125588 
L 634.813306 94.912981 
L 641.764435 94.090174 
L 648.715565 106.099223 
L 654.994004 90.529096 
L 661.945133 107.863549 
L 668.672033 124.186336 
L 675.623162 125.91736 
" clip-path="url(#p024803a717)" style="fill: none; stroke: #36c6d3; stroke-width: 1.9; stroke-linecap: round"/>
   </g>
   <g id="text_5">
    <!-- Cancún (ASUR) -->
    <g style="fill: #ffffff" transform="translate(52.5024 82.232667) scale(0.12 -0.12)">
     <defs>
      <path id="DejaVuSans-Bold-26" d="M 4288 256 
Q 3956 84 3597 -3 
Q 3238 -91 2847 -91 
Q 1681 -91 1000 561 
Q 319 1213 319 2328 
Q 319 3447 1000 4098 
Q 1681 4750 2847 4750 
Q 3238 4750 3597 4662 
Q 3956 4575 4288 4403 
L 4288 3438 
Q 3953 3666 3628 3772 
Q 3303 3878 2944 3878 
Q 2300 3878 1931 3465 
Q 1563 3053 1563 2328 
Q 1563 1606 1931 1193 
Q 2300 781 2944 781 
Q 3303 781 3628 887 
Q 3953 994 4288 1222 
L 4288 256 
z
" transform="scale(0.015625)"/>
      <path id="DejaVuSans-Bold-44" d="M 2106 1575 
Q 1756 1575 1579 1456 
Q 1403 1338 1403 1106 
Q 1403 894 1545 773 
Q 1688 653 1941 653 
Q 2256 653 2472 879 
Q 2688 1106 2688 1447 
L 2688 1575 
L 2106 1575 
z
M 3816 1997 
L 3816 0 
L 2688 0 
L 2688 519 
Q 2463 200 2181 54 
Q 1900 -91 1497 -91 
Q 953 -91 614 226 
Q 275 544 275 1050 
Q 275 1666 698 1953 
Q 1122 2241 2028 2241 
L 2688 2241 
L 2688 2328 
Q 2688 2594 2478 2717 
Q 2269 2841 1825 2841 
Q 1466 2841 1156 2769 
Q 847 2697 581 2553 
L 581 3406 
Q 941 3494 1303 3539 
Q 1666 3584 2028 3584 
Q 2975 3584 3395 3211 
Q 3816 2838 3816 1997 
z
" transform="scale(0.015625)"/>
      <path id="DejaVuSans-Bold-51" d="M 4056 2131 
L 4056 0 
L 2931 0 
L 2931 347 
L 2931 1631 
Q 2931 2084 2911 2256 
Q 2891 2428 2841 2509 
Q 2775 2619 2662 2680 
Q 2550 2741 2406 2741 
Q 2056 2741 1856 2470 
Q 1656 2200 1656 1722 
L 1656 0 
L 538 0 
L 538 3500 
L 1656 3500 
L 1656 2988 
Q 1909 3294 2193 3439 
Q 2478 3584 2822 3584 
Q 3428 3584 3742 3212 
Q 4056 2841 4056 2131 
z
" transform="scale(0.015625)"/>
      <path id="DejaVuSans-Bold-46" d="M 3366 3391 
L 3366 2478 
Q 3138 2634 2908 2709 
Q 2678 2784 2431 2784 
Q 1963 2784 1702 2511 
Q 1441 2238 1441 1747 
Q 1441 1256 1702 982 
Q 1963 709 2431 709 
Q 2694 709 2930 787 
Q 3166 866 3366 1019 
L 3366 103 
Q 3103 6 2833 -42 
Q 2563 -91 2291 -91 
Q 1344 -91 809 395 
Q 275 881 275 1747 
Q 275 2613 809 3098 
Q 1344 3584 2291 3584 
Q 2566 3584 2833 3536 
Q 3100 3488 3366 3391 
z
" transform="scale(0.015625)"/>
      <path id="DejaVuSans-Bold-bc" d="M 500 1363 
L 500 3500 
L 1625 3500 
L 1625 3150 
Q 1625 2866 1622 2436 
Q 1619 2006 1619 1863 
Q 1619 1441 1641 1255 
Q 1663 1069 1716 984 
Q 1784 875 1895 815 
Q 2006 756 2150 756 
Q 2500 756 2700 1025 
Q 2900 1294 2900 1772 
L 2900 3500 
L 4019 3500 
L 4019 0 
L 2900 0 
L 2900 506 
Q 2647 200 2364 54 
Q 2081 -91 1741 -91 
Q 1134 -91 817 281 
Q 500 653 500 1363 
z
M 2778 5119 
L 3662 5119 
L 2509 3944 
L 1897 3944 
L 2778 5119 
z
" transform="scale(0.015625)"/>
      <path id="DejaVuSans-Bold-3" transform="scale(0.015625)"/>
      <path id="DejaVuSans-Bold-b" d="M 2413 -844 
L 1484 -844 
Q 1006 -72 778 623 
Q 550 1319 550 2003 
Q 550 2688 779 3389 
Q 1009 4091 1484 4856 
L 2413 4856 
Q 2013 4116 1813 3408 
Q 1613 2700 1613 2009 
Q 1613 1319 1811 609 
Q 2009 -100 2413 -844 
z
" transform="scale(0.015625)"/>
      <path id="DejaVuSans-Bold-24" d="M 3419 850 
L 1538 850 
L 1241 0 
L 31 0 
L 1759 4666 
L 3194 4666 
L 4922 0 
L 3713 0 
L 3419 850 
z
M 1838 1716 
L 3116 1716 
L 2478 3572 
L 1838 1716 
z
" transform="scale(0.015625)"/>
      <path id="DejaVuSans-Bold-36" d="M 3834 4519 
L 3834 3531 
Q 3450 3703 3084 3790 
Q 2719 3878 2394 3878 
Q 1963 3878 1756 3759 
Q 1550 3641 1550 3391 
Q 1550 3203 1689 3098 
Q 1828 2994 2194 2919 
L 2706 2816 
Q 3484 2659 3812 2340 
Q 4141 2022 4141 1434 
Q 4141 663 3683 286 
Q 3225 -91 2284 -91 
Q 1841 -91 1394 -6 
Q 947 78 500 244 
L 500 1259 
Q 947 1022 1364 901 
Q 1781 781 2169 781 
Q 2563 781 2772 912 
Q 2981 1044 2981 1288 
Q 2981 1506 2839 1625 
Q 2697 1744 2272 1838 
L 1806 1941 
Q 1106 2091 782 2419 
Q 459 2747 459 3303 
Q 459 4000 909 4375 
Q 1359 4750 2203 4750 
Q 2588 4750 2994 4692 
Q 3400 4634 3834 4519 
z
" transform="scale(0.015625)"/>
      <path id="DejaVuSans-Bold-38" d="M 588 4666 
L 1791 4666 
L 1791 1869 
Q 1791 1291 1980 1042 
Q 2169 794 2597 794 
Q 3028 794 3217 1042 
Q 3406 1291 3406 1869 
L 3406 4666 
L 4609 4666 
L 4609 1869 
Q 4609 878 4112 393 
Q 3616 -91 2597 -91 
Q 1581 -91 1084 393 
Q 588 878 588 1869 
L 588 4666 
z
" transform="scale(0.015625)"/>
      <path id="DejaVuSans-Bold-35" d="M 2297 2597 
Q 2675 2597 2839 2737 
Q 3003 2878 3003 3200 
Q 3003 3519 2839 3656 
Q 2675 3794 2297 3794 
L 1791 3794 
L 1791 2597 
L 2297 2597 
z
M 1791 1766 
L 1791 0 
L 588 0 
L 588 4666 
L 2425 4666 
Q 3347 4666 3776 4356 
Q 4206 4047 4206 3378 
Q 4206 2916 3982 2619 
Q 3759 2322 3309 2181 
Q 3556 2125 3751 1926 
Q 3947 1728 4147 1325 
L 4800 0 
L 3519 0 
L 2950 1159 
Q 2778 1509 2601 1637 
Q 2425 1766 2131 1766 
L 1791 1766 
z
" transform="scale(0.015625)"/>
      <path id="DejaVuSans-Bold-c" d="M 513 -844 
Q 913 -100 1113 609 
Q 1313 1319 1313 2009 
Q 1313 2700 1113 3408 
Q 913 4116 513 4856 
L 1441 4856 
Q 1916 4091 2145 3389 
Q 2375 2688 2375 2003 
Q 2375 1319 2147 623 
Q 1919 -72 1441 -844 
L 513 -844 
z
" transform="scale(0.015625)"/>
     </defs>
     <use xlink:href="#DejaVuSans-Bold-26"/>
     <use xlink:href="#DejaVuSans-Bold-44" transform="translate(73.390625 0)"/>
     <use xlink:href="#DejaVuSans-Bold-51" transform="translate(140.875 0)"/>
     <use xlink:href="#DejaVuSans-Bold-46" transform="translate(212.0625 0)"/>
     <use xlink:href="#DejaVuSans-Bold-bc" transform="translate(271.34375 0)"/>
     <use xlink:href="#DejaVuSans-Bold-51" transform="translate(342.53125 0)"/>
     <use xlink:href="#DejaVuSans-Bold-3" transform="translate(413.71875 0)"/>
     <use xlink:href="#DejaVuSans-Bold-b" transform="translate(448.53125 0)"/>
     <use xlink:href="#DejaVuSans-Bold-24" transform="translate(494.234375 0)"/>
     <use xlink:href="#DejaVuSans-Bold-36" transform="translate(571.625 0)"/>
     <use xlink:href="#DejaVuSans-Bold-38" transform="translate(643.640625 0)"/>
     <use xlink:href="#DejaVuSans-Bold-35" transform="translate(724.84375 0)"/>
     <use xlink:href="#DejaVuSans-Bold-c" transform="translate(801.84375 0)"/>
    </g>
   </g>
   <g id="text_6">
    <!-- ≈ 29 M pasajeros en 2025 -->
    <g style="fill: #9fb0c6" transform="translate(52.5024 111.848912) scale(0.09 -0.09)">
     <defs>
      <path id="DejaVuSans-cd2" d="M 4684 1947 
L 4684 1388 
Q 4356 1144 4076 1036 
Q 3797 928 3494 928 
Q 3150 928 2694 1113 
Q 2663 1125 2641 1134 
Q 2622 1141 2575 1159 
Q 2091 1350 1797 1350 
Q 1522 1350 1253 1231 
Q 984 1113 678 850 
L 678 1409 
Q 1006 1653 1286 1761 
Q 1566 1869 1869 1869 
Q 2213 1869 2672 1684 
Q 2706 1669 2722 1663 
Q 2741 1656 2788 1638 
Q 3272 1447 3566 1447 
Q 3834 1447 4098 1564 
Q 4363 1681 4684 1947 
z
M 4684 3163 
L 4684 2606 
Q 4356 2359 4076 2251 
Q 3797 2144 3494 2144 
Q 3150 2144 2694 2328 
Q 2663 2341 2641 2350 
Q 2622 2356 2575 2375 
Q 2091 2566 1797 2566 
Q 1522 2566 1253 2447 
Q 984 2328 678 2069 
L 678 2625 
Q 1006 2869 1286 2976 
Q 1566 3084 1869 3084 
Q 2213 3084 2672 2900 
Q 2703 2888 2719 2881 
Q 2741 2872 2788 2853 
Q 3272 2663 3566 2663 
Q 3834 2663 4098 2780 
Q 4363 2897 4684 3163 
z
" transform="scale(0.015625)"/>
      <path id="DejaVuSans-1c" d="M 703 97 
L 703 672 
Q 941 559 1184 500 
Q 1428 441 1663 441 
Q 2288 441 2617 861 
Q 2947 1281 2994 2138 
Q 2813 1869 2534 1725 
Q 2256 1581 1919 1581 
Q 1219 1581 811 2004 
Q 403 2428 403 3163 
Q 403 3881 828 4315 
Q 1253 4750 1959 4750 
Q 2769 4750 3195 4129 
Q 3622 3509 3622 2328 
Q 3622 1225 3098 567 
Q 2575 -91 1691 -91 
Q 1453 -91 1209 -44 
Q 966 3 703 97 
z
M 1959 2075 
Q 2384 2075 2632 2365 
Q 2881 2656 2881 3163 
Q 2881 3666 2632 3958 
Q 2384 4250 1959 4250 
Q 1534 4250 1286 3958 
Q 1038 3666 1038 3163 
Q 1038 2656 1286 2365 
Q 1534 2075 1959 2075 
z
" transform="scale(0.015625)"/>
      <path id="DejaVuSans-53" d="M 1159 525 
L 1159 -1331 
L 581 -1331 
L 581 3500 
L 1159 3500 
L 1159 2969 
Q 1341 3281 1617 3432 
Q 1894 3584 2278 3584 
Q 2916 3584 3314 3078 
Q 3713 2572 3713 1747 
Q 3713 922 3314 415 
Q 2916 -91 2278 -91 
Q 1894 -91 1617 61 
Q 1341 213 1159 525 
z
M 3116 1747 
Q 3116 2381 2855 2742 
Q 2594 3103 2138 3103 
Q 1681 3103 1420 2742 
Q 1159 2381 1159 1747 
Q 1159 1113 1420 752 
Q 1681 391 2138 391 
Q 2594 391 2855 752 
Q 3116 1113 3116 1747 
z
" transform="scale(0.015625)"/>
      <path id="DejaVuSans-44" d="M 2194 1759 
Q 1497 1759 1228 1600 
Q 959 1441 959 1056 
Q 959 750 1161 570 
Q 1363 391 1709 391 
Q 2188 391 2477 730 
Q 2766 1069 2766 1631 
L 2766 1759 
L 2194 1759 
z
M 3341 1997 
L 3341 0 
L 2766 0 
L 2766 531 
Q 2569 213 2275 61 
Q 1981 -91 1556 -91 
Q 1019 -91 701 211 
Q 384 513 384 1019 
Q 384 1609 779 1909 
Q 1175 2209 1959 2209 
L 2766 2209 
L 2766 2266 
Q 2766 2663 2505 2880 
Q 2244 3097 1772 3097 
Q 1472 3097 1187 3025 
Q 903 2953 641 2809 
L 641 3341 
Q 956 3463 1253 3523 
Q 1550 3584 1831 3584 
Q 2591 3584 2966 3190 
Q 3341 2797 3341 1997 
z
" transform="scale(0.015625)"/>
      <path id="DejaVuSans-56" d="M 2834 3397 
L 2834 2853 
Q 2591 2978 2328 3040 
Q 2066 3103 1784 3103 
Q 1356 3103 1142 2972 
Q 928 2841 928 2578 
Q 928 2378 1081 2264 
Q 1234 2150 1697 2047 
L 1894 2003 
Q 2506 1872 2764 1633 
Q 3022 1394 3022 966 
Q 3022 478 2636 193 
Q 2250 -91 1575 -91 
Q 1294 -91 989 -36 
Q 684 19 347 128 
L 347 722 
Q 666 556 975 473 
Q 1284 391 1588 391 
Q 1994 391 2212 530 
Q 2431 669 2431 922 
Q 2431 1156 2273 1281 
Q 2116 1406 1581 1522 
L 1381 1569 
Q 847 1681 609 1914 
Q 372 2147 372 2553 
Q 372 3047 722 3315 
Q 1072 3584 1716 3584 
Q 2034 3584 2315 3537 
Q 2597 3491 2834 3397 
z
" transform="scale(0.015625)"/>
      <path id="DejaVuSans-4d" d="M 603 3500 
L 1178 3500 
L 1178 -63 
Q 1178 -731 923 -1031 
Q 669 -1331 103 -1331 
L -116 -1331 
L -116 -844 
L 38 -844 
Q 366 -844 484 -692 
Q 603 -541 603 -63 
L 603 3500 
z
M 603 4863 
L 1178 4863 
L 1178 4134 
L 603 4134 
L 603 4863 
z
" transform="scale(0.015625)"/>
      <path id="DejaVuSans-48" d="M 3597 1894 
L 3597 1613 
L 953 1613 
Q 991 1019 1311 708 
Q 1631 397 2203 397 
Q 2534 397 2845 478 
Q 3156 559 3463 722 
L 3463 178 
Q 3153 47 2828 -22 
Q 2503 -91 2169 -91 
Q 1331 -91 842 396 
Q 353 884 353 1716 
Q 353 2575 817 3079 
Q 1281 3584 2069 3584 
Q 2775 3584 3186 3129 
Q 3597 2675 3597 1894 
z
M 3022 2063 
Q 3016 2534 2758 2815 
Q 2500 3097 2075 3097 
Q 1594 3097 1305 2825 
Q 1016 2553 972 2059 
L 3022 2063 
z
" transform="scale(0.015625)"/>
      <path id="DejaVuSans-55" d="M 2631 2963 
Q 2534 3019 2420 3045 
Q 2306 3072 2169 3072 
Q 1681 3072 1420 2755 
Q 1159 2438 1159 1844 
L 1159 0 
L 581 0 
L 581 3500 
L 1159 3500 
L 1159 2956 
Q 1341 3275 1631 3429 
Q 1922 3584 2338 3584 
Q 2397 3584 2469 3576 
Q 2541 3569 2628 3553 
L 2631 2963 
z
" transform="scale(0.015625)"/>
      <path id="DejaVuSans-52" d="M 1959 3097 
Q 1497 3097 1228 2736 
Q 959 2375 959 1747 
Q 959 1119 1226 758 
Q 1494 397 1959 397 
Q 2419 397 2687 759 
Q 2956 1122 2956 1747 
Q 2956 2369 2687 2733 
Q 2419 3097 1959 3097 
z
M 1959 3584 
Q 2709 3584 3137 3096 
Q 3566 2609 3566 1747 
Q 3566 888 3137 398 
Q 2709 -91 1959 -91 
Q 1206 -91 779 398 
Q 353 888 353 1747 
Q 353 2609 779 3096 
Q 1206 3584 1959 3584 
z
" transform="scale(0.015625)"/>
      <path id="DejaVuSans-51" d="M 3513 2113 
L 3513 0 
L 2938 0 
L 2938 2094 
Q 2938 2591 2744 2837 
Q 2550 3084 2163 3084 
Q 1697 3084 1428 2787 
Q 1159 2491 1159 1978 
L 1159 0 
L 581 0 
L 581 3500 
L 1159 3500 
L 1159 2956 
Q 1366 3272 1645 3428 
Q 1925 3584 2291 3584 
Q 2894 3584 3203 3211 
Q 3513 2838 3513 2113 
z
" transform="scale(0.015625)"/>
      <path id="DejaVuSans-18" d="M 691 4666 
L 3169 4666 
L 3169 4134 
L 1269 4134 
L 1269 2991 
Q 1406 3038 1543 3061 
Q 1681 3084 1819 3084 
Q 2600 3084 3056 2656 
Q 3513 2228 3513 1497 
Q 3513 744 3044 326 
Q 2575 -91 1722 -91 
Q 1428 -91 1123 -41 
Q 819 9 494 109 
L 494 744 
Q 775 591 1075 516 
Q 1375 441 1709 441 
Q 2250 441 2565 725 
Q 2881 1009 2881 1497 
Q 2881 1984 2565 2268 
Q 2250 2553 1709 2553 
Q 1456 2553 1204 2497 
Q 953 2441 691 2322 
L 691 4666 
z
" transform="scale(0.015625)"/>
     </defs>
     <use xlink:href="#DejaVuSans-cd2"/>
     <use xlink:href="#DejaVuSans-3" transform="translate(83.796875 0)"/>
     <use xlink:href="#DejaVuSans-15" transform="translate(115.578125 0)"/>
     <use xlink:href="#DejaVuSans-1c" transform="translate(179.203125 0)"/>
     <use xlink:href="#DejaVuSans-3" transform="translate(242.828125 0)"/>
     <use xlink:href="#DejaVuSans-30" transform="translate(274.609375 0)"/>
     <use xlink:href="#DejaVuSans-3" transform="translate(360.890625 0)"/>
     <use xlink:href="#DejaVuSans-53" transform="translate(392.671875 0)"/>
     <use xlink:href="#DejaVuSans-44" transform="translate(456.15625 0)"/>
     <use xlink:href="#DejaVuSans-56" transform="translate(517.4375 0)"/>
     <use xlink:href="#DejaVuSans-44" transform="translate(569.53125 0)"/>
     <use xlink:href="#DejaVuSans-4d" transform="translate(630.8125 0)"/>
     <use xlink:href="#DejaVuSans-48" transform="translate(658.59375 0)"/>
     <use xlink:href="#DejaVuSans-55" transform="translate(720.125 0)"/>
     <use xlink:href="#DejaVuSans-52" transform="translate(759.03125 0)"/>
     <use xlink:href="#DejaVuSans-56" transform="translate(820.21875 0)"/>
     <use xlink:href="#DejaVuSans-3" transform="translate(872.3125 0)"/>
     <use xlink:href="#DejaVuSans-48" transform="translate(904.09375 0)"/>
     <use xlink:href="#DejaVuSans-51" transform="translate(965.625 0)"/>
     <use xlink:href="#DejaVuSans-3" transform="translate(1029 0)"/>
     <use xlink:href="#DejaVuSans-15" transform="translate(1060.78125 0)"/>
     <use xlink:href="#DejaVuSans-13" transform="translate(1124.40625 0)"/>
     <use xlink:href="#DejaVuSans-15" transform="translate(1188.03125 0)"/>
     <use xlink:href="#DejaVuSans-18" transform="translate(1251.65625 0)"/>
    </g>
   </g>
  </g>
  <g id="axes_2">
   <g id="patch_3">
    <path d="M 44.64 439.56 
L 699.84 439.56 
L 699.84 259.694579 
L 44.64 259.694579 
z
" style="fill: #0a1628"/>
   </g>
   <g id="matplotlib.axis_3">
    <g id="xtick_9">
     <g id="line2d_18"/>
     <g id="text_7">
      <!-- 2019 -->
      <g style="fill: #9fb0c6" transform="translate(53.816658 449.897891) scale(0.09 -0.09)">
       <use xlink:href="#DejaVuSans-15"/>
       <use xlink:href="#DejaVuSans-13" transform="translate(63.625 0)"/>
       <use xlink:href="#DejaVuSans-14" transform="translate(127.25 0)"/>
       <use xlink:href="#DejaVuSans-1c" transform="translate(190.875 0)"/>
      </g>
     </g>
    </g>
    <g id="xtick_10">
     <g id="line2d_19"/>
     <g id="text_8">
      <!-- 2020 -->
      <g style="fill: #9fb0c6" transform="translate(135.660601 449.897891) scale(0.09 -0.09)">
       <use xlink:href="#DejaVuSans-15"/>
       <use xlink:href="#DejaVuSans-13" transform="translate(63.625 0)"/>
       <use xlink:href="#DejaVuSans-15" transform="translate(127.25 0)"/>
       <use xlink:href="#DejaVuSans-13" transform="translate(190.875 0)"/>
      </g>
     </g>
    </g>
    <g id="xtick_11">
     <g id="line2d_20"/>
     <g id="text_9">
      <!-- 2021 -->
      <g style="fill: #9fb0c6" transform="translate(217.728773 449.897891) scale(0.09 -0.09)">
       <use xlink:href="#DejaVuSans-15"/>
       <use xlink:href="#DejaVuSans-13" transform="translate(63.625 0)"/>
       <use xlink:href="#DejaVuSans-15" transform="translate(127.25 0)"/>
       <use xlink:href="#DejaVuSans-14" transform="translate(190.875 0)"/>
      </g>
     </g>
    </g>
    <g id="xtick_12">
     <g id="line2d_21"/>
     <g id="text_10">
      <!-- 2022 -->
      <g style="fill: #9fb0c6" transform="translate(299.572716 449.897891) scale(0.09 -0.09)">
       <use xlink:href="#DejaVuSans-15"/>
       <use xlink:href="#DejaVuSans-13" transform="translate(63.625 0)"/>
       <use xlink:href="#DejaVuSans-15" transform="translate(127.25 0)"/>
       <use xlink:href="#DejaVuSans-15" transform="translate(190.875 0)"/>
      </g>
     </g>
    </g>
    <g id="xtick_13">
     <g id="line2d_22"/>
     <g id="text_11">
      <!-- 2023 -->
      <g style="fill: #9fb0c6" transform="translate(381.416658 449.897891) scale(0.09 -0.09)">
       <use xlink:href="#DejaVuSans-15"/>
       <use xlink:href="#DejaVuSans-13" transform="translate(63.625 0)"/>
       <use xlink:href="#DejaVuSans-15" transform="translate(127.25 0)"/>
       <use xlink:href="#DejaVuSans-16" transform="translate(190.875 0)"/>
      </g>
     </g>
    </g>
    <g id="xtick_14">
     <g id="line2d_23"/>
     <g id="text_12">
      <!-- 2024 -->
      <g style="fill: #9fb0c6" transform="translate(463.260601 449.897891) scale(0.09 -0.09)">
       <defs>
        <path id="DejaVuSans-17" d="M 2419 4116 
L 825 1625 
L 2419 1625 
L 2419 4116 
z
M 2253 4666 
L 3047 4666 
L 3047 1625 
L 3713 1625 
L 3713 1100 
L 3047 1100 
L 3047 0 
L 2419 0 
L 2419 1100 
L 313 1100 
L 313 1709 
L 2253 4666 
z
" transform="scale(0.015625)"/>
       </defs>
       <use xlink:href="#DejaVuSans-15"/>
       <use xlink:href="#DejaVuSans-13" transform="translate(63.625 0)"/>
       <use xlink:href="#DejaVuSans-15" transform="translate(127.25 0)"/>
       <use xlink:href="#DejaVuSans-17" transform="translate(190.875 0)"/>
      </g>
     </g>
    </g>
    <g id="xtick_15">
     <g id="line2d_24"/>
     <g id="text_13">
      <!-- 2025 -->
      <g style="fill: #9fb0c6" transform="translate(545.328773 449.897891) scale(0.09 -0.09)">
       <use xlink:href="#DejaVuSans-15"/>
       <use xlink:href="#DejaVuSans-13" transform="translate(63.625 0)"/>
       <use xlink:href="#DejaVuSans-15" transform="translate(127.25 0)"/>
       <use xlink:href="#DejaVuSans-18" transform="translate(190.875 0)"/>
      </g>
     </g>
    </g>
    <g id="xtick_16">
     <g id="line2d_25"/>
     <g id="text_14">
      <!-- 2026 -->
      <g style="fill: #9fb0c6" transform="translate(627.172716 449.897891) scale(0.09 -0.09)">
       <defs>
        <path id="DejaVuSans-19" d="M 2113 2584 
Q 1688 2584 1439 2293 
Q 1191 2003 1191 1497 
Q 1191 994 1439 701 
Q 1688 409 2113 409 
Q 2538 409 2786 701 
Q 3034 994 3034 1497 
Q 3034 2003 2786 2293 
Q 2538 2584 2113 2584 
z
M 3366 4563 
L 3366 3988 
Q 3128 4100 2886 4159 
Q 2644 4219 2406 4219 
Q 1781 4219 1451 3797 
Q 1122 3375 1075 2522 
Q 1259 2794 1537 2939 
Q 1816 3084 2150 3084 
Q 2853 3084 3261 2657 
Q 3669 2231 3669 1497 
Q 3669 778 3244 343 
Q 2819 -91 2113 -91 
Q 1303 -91 875 529 
Q 447 1150 447 2328 
Q 447 3434 972 4092 
Q 1497 4750 2381 4750 
Q 2619 4750 2861 4703 
Q 3103 4656 3366 4563 
z
" transform="scale(0.015625)"/>
       </defs>
       <use xlink:href="#DejaVuSans-15"/>
       <use xlink:href="#DejaVuSans-13" transform="translate(63.625 0)"/>
       <use xlink:href="#DejaVuSans-15" transform="translate(127.25 0)"/>
       <use xlink:href="#DejaVuSans-19" transform="translate(190.875 0)"/>
      </g>
     </g>
    </g>
   </g>
   <g id="matplotlib.axis_4">
    <g id="ytick_5">
     <g id="line2d_26">
      <path d="M 44.64 439.56 
L 699.84 439.56 
" clip-path="url(#p4e40c592da)" style="fill: none; stroke: #1b2a44; stroke-width: 0.8; stroke-linecap: square"/>
     </g>
     <g id="line2d_27"/>
     <g id="text_15">
      <!-- 0 M -->
      <g style="fill: #9fb0c6" transform="translate(24.788125 442.978945) scale(0.09 -0.09)">
       <use xlink:href="#DejaVuSans-13"/>
       <use xlink:href="#DejaVuSans-3" transform="translate(63.625 0)"/>
       <use xlink:href="#DejaVuSans-30" transform="translate(95.40625 0)"/>
      </g>
     </g>
    </g>
    <g id="ytick_6">
     <g id="line2d_28">
      <path d="M 44.64 388.16988 
L 699.84 388.16988 
" clip-path="url(#p4e40c592da)" style="fill: none; stroke: #1b2a44; stroke-width: 0.8; stroke-linecap: square"/>
     </g>
     <g id="line2d_29"/>
     <g id="text_16">
      <!-- 1 M -->
      <g style="fill: #9fb0c6" transform="translate(24.788125 391.588825) scale(0.09 -0.09)">
       <use xlink:href="#DejaVuSans-14"/>
       <use xlink:href="#DejaVuSans-3" transform="translate(63.625 0)"/>
       <use xlink:href="#DejaVuSans-30" transform="translate(95.40625 0)"/>
      </g>
     </g>
    </g>
    <g id="ytick_7">
     <g id="line2d_30">
      <path d="M 44.64 336.77976 
L 699.84 336.77976 
" clip-path="url(#p4e40c592da)" style="fill: none; stroke: #1b2a44; stroke-width: 0.8; stroke-linecap: square"/>
     </g>
     <g id="line2d_31"/>
     <g id="text_17">
      <!-- 2 M -->
      <g style="fill: #9fb0c6" transform="translate(24.788125 340.198705) scale(0.09 -0.09)">
       <use xlink:href="#DejaVuSans-15"/>
       <use xlink:href="#DejaVuSans-3" transform="translate(63.625 0)"/>
       <use xlink:href="#DejaVuSans-30" transform="translate(95.40625 0)"/>
      </g>
     </g>
    </g>
    <g id="ytick_8">
     <g id="line2d_32">
      <path d="M 44.64 285.38964 
L 699.84 285.38964 
" clip-path="url(#p4e40c592da)" style="fill: none; stroke: #1b2a44; stroke-width: 0.8; stroke-linecap: square"/>
     </g>
     <g id="line2d_33"/>
     <g id="text_18">
      <!-- 3 M -->
      <g style="fill: #9fb0c6" transform="translate(24.788125 288.808585) scale(0.09 -0.09)">
       <use xlink:href="#DejaVuSans-16"/>
       <use xlink:href="#DejaVuSans-3" transform="translate(63.625 0)"/>
       <use xlink:href="#DejaVuSans-30" transform="translate(95.40625 0)"/>
      </g>
     </g>
    </g>
   </g>
   <g id="FillBetweenPolyCollection_1">
    <defs>
     <path id="mb8d82bdbae" d="M 470.901191 -35.64 
L 470.901191 -37.683682 
L 477.85232 -38.18191 
L 484.80345 -37.778137 
L 491.306119 -38.46214 
L 498.257248 -40.615437 
L 504.984148 -41.383154 
L 511.935277 -42.595242 
L 518.662177 -42.900859 
L 525.613306 -42.746842 
L 532.564435 -40.245942 
L 539.291335 -40.77156 
L 546.242464 -41.640619 
L 552.969363 -43.940481 
L 559.920493 -43.360389 
L 566.871622 -41.710355 
L 573.150062 -43.040537 
L 580.101191 -41.832509 
L 586.82809 -40.079387 
L 593.77922 -40.070651 
L 600.506119 -40.465584 
L 607.457248 -39.953892 
L 614.408378 -38.962166 
L 621.135277 -39.462037 
L 628.086407 -40.994131 
L 634.813306 -41.916378 
L 641.764435 -41.206578 
L 648.715565 -40.117313 
L 654.994004 -40.395847 
L 661.945133 -39.71683 
L 668.672033 -38.544467 
L 668.672033 -35.64 
L 668.672033 -35.64 
L 661.945133 -35.64 
L 654.994004 -35.64 
L 648.715565 -35.64 
L 641.764435 -35.64 
L 634.813306 -35.64 
L 628.086407 -35.64 
L 621.135277 -35.64 
L 614.408378 -35.64 
L 607.457248 -35.64 
L 600.506119 -35.64 
L 593.77922 -35.64 
L 586.82809 -35.64 
L 580.101191 -35.64 
L 573.150062 -35.64 
L 566.871622 -35.64 
L 559.920493 -35.64 
L 552.969363 -35.64 
L 546.242464 -35.64 
L 539.291335 -35.64 
L 532.564435 -35.64 
L 525.613306 -35.64 
L 518.662177 -35.64 
L 511.935277 -35.64 
L 504.984148 -35.64 
L 498.257248 -35.64 
L 491.306119 -35.64 
L 484.80345 -35.64 
L 477.85232 -35.64 
L 470.901191 -35.64 
z
" style="stroke: #36c6d3; stroke-opacity: 0.16"/>
    </defs>
    <g clip-path="url(#p4e40c592da)">
     <use xlink:href="#mb8d82bdbae" x="0" y="475.2" style="fill: #36c6d3; fill-opacity: 0.16; stroke: #36c6d3; stroke-opacity: 0.16"/>
    </g>
   </g>
   <g id="line2d_34">
    <path d="M 470.901191 437.516318 
L 477.85232 437.01809 
L 484.80345 437.421863 
L 491.306119 436.73786 
L 498.257248 434.584563 
L 504.984148 433.816846 
L 511.935277 432.604758 
L 518.662177 432.299141 
L 525.613306 432.453158 
L 532.564435 434.954058 
L 539.291335 434.42844 
L 546.242464 433.559381 
L 552.969363 431.259519 
L 559.920493 431.839611 
L 566.871622 433.489645 
L 573.150062 432.159463 
L 580.101191 433.367491 
L 586.82809 435.120613 
L 593.77922 435.129349 
L 600.506119 434.734416 
L 607.457248 435.246108 
L 614.408378 436.237834 
L 621.135277 435.737963 
L 628.086407 434.205869 
L 634.813306 433.283622 
L 641.764435 433.993422 
L 648.715565 435.082687 
L 654.994004 434.804153 
L 661.945133 435.48317 
L 668.672033 436.655533 
" clip-path="url(#p4e40c592da)" style="fill: none; stroke: #36c6d3; stroke-width: 1.9; stroke-linecap: round"/>
   </g>
   <g id="text_19">
    <!-- Tulum (AFAC) -->
    <g style="fill: #ffffff" transform="translate(52.5024 286.799246) scale(0.12 -0.12)">
     <defs>
      <path id="DejaVuSans-Bold-37" d="M 31 4666 
L 4331 4666 
L 4331 3756 
L 2784 3756 
L 2784 0 
L 1581 0 
L 1581 3756 
L 31 3756 
L 31 4666 
z
" transform="scale(0.015625)"/>
      <path id="DejaVuSans-Bold-58" d="M 500 1363 
L 500 3500 
L 1625 3500 
L 1625 3150 
Q 1625 2866 1622 2436 
Q 1619 2006 1619 1863 
Q 1619 1441 1641 1255 
Q 1663 1069 1716 984 
Q 1784 875 1895 815 
Q 2006 756 2150 756 
Q 2500 756 2700 1025 
Q 2900 1294 2900 1772 
L 2900 3500 
L 4019 3500 
L 4019 0 
L 2900 0 
L 2900 506 
Q 2647 200 2364 54 
Q 2081 -91 1741 -91 
Q 1134 -91 817 281 
Q 500 653 500 1363 
z
" transform="scale(0.015625)"/>
      <path id="DejaVuSans-Bold-4f" d="M 538 4863 
L 1656 4863 
L 1656 0 
L 538 0 
L 538 4863 
z
" transform="scale(0.015625)"/>
      <path id="DejaVuSans-Bold-50" d="M 3781 2919 
Q 3994 3244 4286 3414 
Q 4578 3584 4928 3584 
Q 5531 3584 5847 3212 
Q 6163 2841 6163 2131 
L 6163 0 
L 5038 0 
L 5038 1825 
Q 5041 1866 5042 1909 
Q 5044 1953 5044 2034 
Q 5044 2406 4934 2573 
Q 4825 2741 4581 2741 
Q 4263 2741 4089 2478 
Q 3916 2216 3909 1719 
L 3909 0 
L 2784 0 
L 2784 1825 
Q 2784 2406 2684 2573 
Q 2584 2741 2328 2741 
Q 2006 2741 1831 2477 
Q 1656 2213 1656 1722 
L 1656 0 
L 531 0 
L 531 3500 
L 1656 3500 
L 1656 2988 
Q 1863 3284 2130 3434 
Q 2397 3584 2719 3584 
Q 3081 3584 3359 3409 
Q 3638 3234 3781 2919 
z
" transform="scale(0.015625)"/>
      <path id="DejaVuSans-Bold-29" d="M 588 4666 
L 3834 4666 
L 3834 3756 
L 1791 3756 
L 1791 2888 
L 3713 2888 
L 3713 1978 
L 1791 1978 
L 1791 0 
L 588 0 
L 588 4666 
z
" transform="scale(0.015625)"/>
     </defs>
     <use xlink:href="#DejaVuSans-Bold-37"/>
     <use xlink:href="#DejaVuSans-Bold-58" transform="translate(57.234375 0)"/>
     <use xlink:href="#DejaVuSans-Bold-4f" transform="translate(128.421875 0)"/>
     <use xlink:href="#DejaVuSans-Bold-58" transform="translate(162.703125 0)"/>
     <use xlink:href="#DejaVuSans-Bold-50" transform="translate(233.890625 0)"/>
     <use xlink:href="#DejaVuSans-Bold-3" transform="translate(338.09375 0)"/>
     <use xlink:href="#DejaVuSans-Bold-b" transform="translate(372.90625 0)"/>
     <use xlink:href="#DejaVuSans-Bold-24" transform="translate(418.609375 0)"/>
     <use xlink:href="#DejaVuSans-Bold-29" transform="translate(496 0)"/>
     <use xlink:href="#DejaVuSans-Bold-24" transform="translate(552.84375 0)"/>
     <use xlink:href="#DejaVuSans-Bold-26" transform="translate(630.234375 0)"/>
     <use xlink:href="#DejaVuSans-Bold-c" transform="translate(703.625 0)"/>
    </g>
   </g>
   <g id="text_20">
    <!-- Abrió dic 2023 · ≈ 1.2 M/año · 4% del tráfico regional -->
    <g style="fill: #9fb0c6" transform="translate(52.5024 317.255491) scale(0.09 -0.09)">
     <defs>
      <path id="DejaVuSans-24" d="M 2188 4044 
L 1331 1722 
L 3047 1722 
L 2188 4044 
z
M 1831 4666 
L 2547 4666 
L 4325 0 
L 3669 0 
L 3244 1197 
L 1141 1197 
L 716 0 
L 50 0 
L 1831 4666 
z
" transform="scale(0.015625)"/>
      <path id="DejaVuSans-45" d="M 3116 1747 
Q 3116 2381 2855 2742 
Q 2594 3103 2138 3103 
Q 1681 3103 1420 2742 
Q 1159 2381 1159 1747 
Q 1159 1113 1420 752 
Q 1681 391 2138 391 
Q 2594 391 2855 752 
Q 3116 1113 3116 1747 
z
M 1159 2969 
Q 1341 3281 1617 3432 
Q 1894 3584 2278 3584 
Q 2916 3584 3314 3078 
Q 3713 2572 3713 1747 
Q 3713 922 3314 415 
Q 2916 -91 2278 -91 
Q 1894 -91 1617 61 
Q 1341 213 1159 525 
L 1159 0 
L 581 0 
L 581 4863 
L 1159 4863 
L 1159 2969 
z
" transform="scale(0.015625)"/>
      <path id="DejaVuSans-4c" d="M 603 3500 
L 1178 3500 
L 1178 0 
L 603 0 
L 603 3500 
z
M 603 4863 
L 1178 4863 
L 1178 4134 
L 603 4134 
L 603 4863 
z
" transform="scale(0.015625)"/>
      <path id="DejaVuSans-b5" d="M 1959 3097 
Q 1497 3097 1228 2736 
Q 959 2375 959 1747 
Q 959 1119 1226 758 
Q 1494 397 1959 397 
Q 2419 397 2687 759 
Q 2956 1122 2956 1747 
Q 2956 2369 2687 2733 
Q 2419 3097 1959 3097 
z
M 1959 3584 
Q 2709 3584 3137 3096 
Q 3566 2609 3566 1747 
Q 3566 888 3137 398 
Q 2709 -91 1959 -91 
Q 1206 -91 779 398 
Q 353 888 353 1747 
Q 353 2609 779 3096 
Q 1206 3584 1959 3584 
z
M 2393 5119 
L 3015 5119 
L 1997 3944 
L 1518 3944 
L 2393 5119 
z
" transform="scale(0.015625)"/>
      <path id="DejaVuSans-47" d="M 2906 2969 
L 2906 4863 
L 3481 4863 
L 3481 0 
L 2906 0 
L 2906 525 
Q 2725 213 2448 61 
Q 2172 -91 1784 -91 
Q 1150 -91 751 415 
Q 353 922 353 1747 
Q 353 2572 751 3078 
Q 1150 3584 1784 3584 
Q 2172 3584 2448 3432 
Q 2725 3281 2906 2969 
z
M 947 1747 
Q 947 1113 1208 752 
Q 1469 391 1925 391 
Q 2381 391 2643 752 
Q 2906 1113 2906 1747 
Q 2906 2381 2643 2742 
Q 2381 3103 1925 3103 
Q 1469 3103 1208 2742 
Q 947 2381 947 1747 
z
" transform="scale(0.015625)"/>
      <path id="DejaVuSans-46" d="M 3122 3366 
L 3122 2828 
Q 2878 2963 2633 3030 
Q 2388 3097 2138 3097 
Q 1578 3097 1268 2742 
Q 959 2388 959 1747 
Q 959 1106 1268 751 
Q 1578 397 2138 397 
Q 2388 397 2633 464 
Q 2878 531 3122 666 
L 3122 134 
Q 2881 22 2623 -34 
Q 2366 -91 2075 -91 
Q 1284 -91 818 406 
Q 353 903 353 1747 
Q 353 2603 823 3093 
Q 1294 3584 2113 3584 
Q 2378 3584 2631 3529 
Q 2884 3475 3122 3366 
z
" transform="scale(0.015625)"/>
      <path id="DejaVuSans-79" d="M 684 2619 
L 1344 2619 
L 1344 1825 
L 684 1825 
L 684 2619 
z
" transform="scale(0.015625)"/>
      <path id="DejaVuSans-11" d="M 684 794 
L 1344 794 
L 1344 0 
L 684 0 
L 684 794 
z
" transform="scale(0.015625)"/>
      <path id="DejaVuSans-12" d="M 1625 4666 
L 2156 4666 
L 531 -594 
L 0 -594 
L 1625 4666 
z
" transform="scale(0.015625)"/>
      <path id="DejaVuSans-b3" d="M 3513 2113 
L 3513 0 
L 2938 0 
L 2938 2094 
Q 2938 2591 2744 2837 
Q 2550 3084 2163 3084 
Q 1697 3084 1428 2787 
Q 1159 2491 1159 1978 
L 1159 0 
L 581 0 
L 581 3500 
L 1159 3500 
L 1159 2956 
Q 1366 3272 1645 3428 
Q 1925 3584 2291 3584 
Q 2894 3584 3203 3211 
Q 3513 2838 3513 2113 
z
M 2063 4281 
L 1884 4453 
Q 1816 4516 1764 4545 
Q 1713 4575 1672 4575 
Q 1553 4575 1497 4461 
Q 1441 4347 1434 4091 
L 1044 4091 
Q 1050 4513 1209 4742 
Q 1369 4972 1653 4972 
Q 1772 4972 1872 4928 
Q 1972 4884 2088 4781 
L 2266 4609 
Q 2334 4547 2386 4517 
Q 2438 4488 2478 4488 
Q 2597 4488 2653 4602 
Q 2709 4716 2716 4972 
L 3106 4972 
Q 3100 4550 2940 4320 
Q 2781 4091 2497 4091 
Q 2378 4091 2278 4134 
Q 2178 4178 2063 4281 
z
" transform="scale(0.015625)"/>
      <path id="DejaVuSans-8" d="M 4653 2053 
Q 4381 2053 4226 1822 
Q 4072 1591 4072 1178 
Q 4072 772 4226 539 
Q 4381 306 4653 306 
Q 4919 306 5073 539 
Q 5228 772 5228 1178 
Q 5228 1588 5073 1820 
Q 4919 2053 4653 2053 
z
M 4653 2450 
Q 5147 2450 5437 2106 
Q 5728 1763 5728 1178 
Q 5728 594 5436 251 
Q 5144 -91 4653 -91 
Q 4153 -91 3862 251 
Q 3572 594 3572 1178 
Q 3572 1766 3864 2108 
Q 4156 2450 4653 2450 
z
M 1428 4353 
Q 1159 4353 1004 4120 
Q 850 3888 850 3481 
Q 850 3069 1003 2837 
Q 1156 2606 1428 2606 
Q 1700 2606 1854 2837 
Q 2009 3069 2009 3481 
Q 2009 3884 1853 4118 
Q 1697 4353 1428 4353 
z
M 4250 4750 
L 4750 4750 
L 1831 -91 
L 1331 -91 
L 4250 4750 
z
M 1428 4750 
Q 1922 4750 2215 4408 
Q 2509 4066 2509 3481 
Q 2509 2891 2217 2550 
Q 1925 2209 1428 2209 
Q 931 2209 642 2551 
Q 353 2894 353 3481 
Q 353 4063 643 4406 
Q 934 4750 1428 4750 
z
" transform="scale(0.015625)"/>
      <path id="DejaVuSans-4f" d="M 603 4863 
L 1178 4863 
L 1178 0 
L 603 0 
L 603 4863 
z
" transform="scale(0.015625)"/>
      <path id="DejaVuSans-57" d="M 1172 4494 
L 1172 3500 
L 2356 3500 
L 2356 3053 
L 1172 3053 
L 1172 1153 
Q 1172 725 1289 603 
Q 1406 481 1766 481 
L 2356 481 
L 2356 0 
L 1766 0 
Q 1100 0 847 248 
Q 594 497 594 1153 
L 594 3053 
L 172 3053 
L 172 3500 
L 594 3500 
L 594 4494 
L 1172 4494 
z
" transform="scale(0.015625)"/>
      <path id="DejaVuSans-a3" d="M 2194 1759 
Q 1497 1759 1228 1600 
Q 959 1441 959 1056 
Q 959 750 1161 570 
Q 1363 391 1709 391 
Q 2188 391 2477 730 
Q 2766 1069 2766 1631 
L 2766 1759 
L 2194 1759 
z
M 3341 1997 
L 3341 0 
L 2766 0 
L 2766 531 
Q 2569 213 2275 61 
Q 1981 -91 1556 -91 
Q 1019 -91 701 211 
Q 384 513 384 1019 
Q 384 1609 779 1909 
Q 1175 2209 1959 2209 
L 2766 2209 
L 2766 2266 
Q 2766 2663 2505 2880 
Q 2244 3097 1772 3097 
Q 1472 3097 1187 3025 
Q 903 2953 641 2809 
L 641 3341 
Q 956 3463 1253 3523 
Q 1550 3584 1831 3584 
Q 2591 3584 2966 3190 
Q 3341 2797 3341 1997 
z
M 2290 5119 
L 2912 5119 
L 1894 3944 
L 1415 3944 
L 2290 5119 
z
" transform="scale(0.015625)"/>
      <path id="DejaVuSans-13af" d="M 3431 3500 
L 3431 0 
L 2853 0 
L 2853 3053 
L 1275 3053 
L 1275 0 
L 697 0 
L 697 3053 
L 147 3053 
L 147 3500 
L 697 3500 
L 697 3744 
Q 697 4316 967 4589 
Q 1238 4863 1797 4863 
L 2375 4863 
L 2375 4384 
L 1825 4384 
Q 1516 4384 1395 4259 
Q 1275 4134 1275 3809 
L 1275 3500 
L 3431 3500 
z
M 2853 4856 
L 3431 4856 
L 3431 4128 
L 2853 4128 
L 2853 4856 
z
" transform="scale(0.015625)"/>
      <path id="DejaVuSans-4a" d="M 2906 1791 
Q 2906 2416 2648 2759 
Q 2391 3103 1925 3103 
Q 1463 3103 1205 2759 
Q 947 2416 947 1791 
Q 947 1169 1205 825 
Q 1463 481 1925 481 
Q 2391 481 2648 825 
Q 2906 1169 2906 1791 
z
M 3481 434 
Q 3481 -459 3084 -895 
Q 2688 -1331 1869 -1331 
Q 1566 -1331 1297 -1286 
Q 1028 -1241 775 -1147 
L 775 -588 
Q 1028 -725 1275 -790 
Q 1522 -856 1778 -856 
Q 2344 -856 2625 -561 
Q 2906 -266 2906 331 
L 2906 616 
Q 2728 306 2450 153 
Q 2172 0 1784 0 
Q 1141 0 747 490 
Q 353 981 353 1791 
Q 353 2603 747 3093 
Q 1141 3584 1784 3584 
Q 2172 3584 2450 3431 
Q 2728 3278 2906 2969 
L 2906 3500 
L 3481 3500 
L 3481 434 
z
" transform="scale(0.015625)"/>
     </defs>
     <use xlink:href="#DejaVuSans-24"/>
     <use xlink:href="#DejaVuSans-45" transform="translate(68.40625 0)"/>
     <use xlink:href="#DejaVuSans-55" transform="translate(131.890625 0)"/>
     <use xlink:href="#DejaVuSans-4c" transform="translate(173 0)"/>
     <use xlink:href="#DejaVuSans-b5" transform="translate(200.78125 0)"/>
     <use xlink:href="#DejaVuSans-3" transform="translate(261.96875 0)"/>
     <use xlink:href="#DejaVuSans-47" transform="translate(293.75 0)"/>
     <use xlink:href="#DejaVuSans-4c" transform="translate(357.234375 0)"/>
     <use xlink:href="#DejaVuSans-46" transform="translate(385.015625 0)"/>
     <use xlink:href="#DejaVuSans-3" transform="translate(440 0)"/>
     <use xlink:href="#DejaVuSans-15" transform="translate(471.78125 0)"/>
     <use xlink:href="#DejaVuSans-13" transform="translate(535.40625 0)"/>
     <use xlink:href="#DejaVuSans-15" transform="translate(599.03125 0)"/>
     <use xlink:href="#DejaVuSans-16" transform="translate(662.65625 0)"/>
     <use xlink:href="#DejaVuSans-3" transform="translate(726.28125 0)"/>
     <use xlink:href="#DejaVuSans-79" transform="translate(758.0625 0)"/>
     <use xlink:href="#DejaVuSans-3" transform="translate(789.84375 0)"/>
     <use xlink:href="#DejaVuSans-cd2" transform="translate(821.625 0)"/>
     <use xlink:href="#DejaVuSans-3" transform="translate(905.421875 0)"/>
     <use xlink:href="#DejaVuSans-14" transform="translate(937.203125 0)"/>
     <use xlink:href="#DejaVuSans-11" transform="translate(1000.828125 0)"/>
     <use xlink:href="#DejaVuSans-15" transform="translate(1032.609375 0)"/>
     <use xlink:href="#DejaVuSans-3" transform="translate(1096.234375 0)"/>
     <use xlink:href="#DejaVuSans-30" transform="translate(1128.015625 0)"/>
     <use xlink:href="#DejaVuSans-12" transform="translate(1214.296875 0)"/>
     <use xlink:href="#DejaVuSans-44" transform="translate(1247.984375 0)"/>
     <use xlink:href="#DejaVuSans-b3" transform="translate(1309.265625 0)"/>
     <use xlink:href="#DejaVuSans-52" transform="translate(1372.640625 0)"/>
     <use xlink:href="#DejaVuSans-3" transform="translate(1433.828125 0)"/>
     <use xlink:href="#DejaVuSans-79" transform="translate(1465.609375 0)"/>
     <use xlink:href="#DejaVuSans-3" transform="translate(1497.390625 0)"/>
     <use xlink:href="#DejaVuSans-17" transform="translate(1529.171875 0)"/>
     <use xlink:href="#DejaVuSans-8" transform="translate(1592.796875 0)"/>
     <use xlink:href="#DejaVuSans-3" transform="translate(1687.8125 0)"/>
     <use xlink:href="#DejaVuSans-47" transform="translate(1719.59375 0)"/>
     <use xlink:href="#DejaVuSans-48" transform="translate(1783.078125 0)"/>
     <use xlink:href="#DejaVuSans-4f" transform="translate(1844.609375 0)"/>
     <use xlink:href="#DejaVuSans-3" transform="translate(1872.390625 0)"/>
     <use xlink:href="#DejaVuSans-57" transform="translate(1904.171875 0)"/>
     <use xlink:href="#DejaVuSans-55" transform="translate(1943.375 0)"/>
     <use xlink:href="#DejaVuSans-a3" transform="translate(1984.484375 0)"/>
     <use xlink:href="#DejaVuSans-13af" transform="translate(2045.765625 0)"/>
     <use xlink:href="#DejaVuSans-46" transform="translate(2108.75 0)"/>
     <use xlink:href="#DejaVuSans-52" transform="translate(2163.734375 0)"/>
     <use xlink:href="#DejaVuSans-3" transform="translate(2224.921875 0)"/>
     <use xlink:href="#DejaVuSans-55" transform="translate(2256.703125 0)"/>
     <use xlink:href="#DejaVuSans-48" transform="translate(2295.609375 0)"/>
     <use xlink:href="#DejaVuSans-4a" transform="translate(2357.140625 0)"/>
     <use xlink:href="#DejaVuSans-4c" transform="translate(2420.625 0)"/>
     <use xlink:href="#DejaVuSans-52" transform="translate(2448.40625 0)"/>
     <use xlink:href="#DejaVuSans-51" transform="translate(2509.59375 0)"/>
     <use xlink:href="#DejaVuSans-44" transform="translate(2572.96875 0)"/>
     <use xlink:href="#DejaVuSans-4f" transform="translate(2634.25 0)"/>
    </g>
   </g>
   <g id="text_21">
    <!-- misma escala que arriba ↑ -->
    <g style="fill: #5c6b80" transform="translate(205.653047 383.030868) scale(0.085 -0.085)">
     <defs>
      <path id="DejaVuSans-Oblique-50" d="M 5747 2113 
L 5338 0 
L 4763 0 
L 5166 2094 
Q 5191 2228 5203 2325 
Q 5216 2422 5216 2491 
Q 5216 2772 5059 2928 
Q 4903 3084 4622 3084 
Q 4203 3084 3875 2770 
Q 3547 2456 3450 1953 
L 3066 0 
L 2491 0 
L 2900 2094 
Q 2925 2209 2937 2307 
Q 2950 2406 2950 2484 
Q 2950 2769 2794 2926 
Q 2638 3084 2363 3084 
Q 1938 3084 1609 2770 
Q 1281 2456 1184 1953 
L 800 0 
L 225 0 
L 909 3500 
L 1484 3500 
L 1375 2956 
Q 1609 3263 1923 3423 
Q 2238 3584 2597 3584 
Q 2978 3584 3223 3384 
Q 3469 3184 3519 2828 
Q 3781 3197 4126 3390 
Q 4472 3584 4856 3584 
Q 5306 3584 5551 3325 
Q 5797 3066 5797 2591 
Q 5797 2488 5784 2364 
Q 5772 2241 5747 2113 
z
" transform="scale(0.015625)"/>
      <path id="DejaVuSans-Oblique-4c" d="M 1172 4863 
L 1747 4863 
L 1606 4134 
L 1031 4134 
L 1172 4863 
z
M 909 3500 
L 1484 3500 
L 800 0 
L 225 0 
L 909 3500 
z
" transform="scale(0.015625)"/>
      <path id="DejaVuSans-Oblique-56" d="M 3200 3397 
L 3091 2853 
Q 2863 2978 2609 3040 
Q 2356 3103 2088 3103 
Q 1634 3103 1373 2948 
Q 1113 2794 1113 2528 
Q 1113 2219 1719 2053 
Q 1766 2041 1788 2034 
L 1972 1978 
Q 2547 1819 2739 1644 
Q 2931 1469 2931 1166 
Q 2931 609 2489 259 
Q 2047 -91 1331 -91 
Q 1053 -91 747 -37 
Q 441 16 72 128 
L 184 722 
Q 500 559 806 475 
Q 1113 391 1394 391 
Q 1816 391 2080 572 
Q 2344 753 2344 1031 
Q 2344 1331 1650 1516 
L 1591 1531 
L 1394 1581 
Q 956 1697 753 1886 
Q 550 2075 550 2369 
Q 550 2928 970 3256 
Q 1391 3584 2113 3584 
Q 2397 3584 2667 3537 
Q 2938 3491 3200 3397 
z
" transform="scale(0.015625)"/>
      <path id="DejaVuSans-Oblique-44" d="M 3438 1997 
L 3047 0 
L 2472 0 
L 2578 531 
Q 2325 219 2001 64 
Q 1678 -91 1281 -91 
Q 834 -91 548 182 
Q 263 456 263 884 
Q 263 1497 752 1853 
Q 1241 2209 2100 2209 
L 2900 2209 
L 2931 2363 
Q 2938 2388 2941 2417 
Q 2944 2447 2944 2509 
Q 2944 2788 2717 2942 
Q 2491 3097 2081 3097 
Q 1800 3097 1504 3025 
Q 1209 2953 897 2809 
L 997 3341 
Q 1322 3463 1633 3523 
Q 1944 3584 2234 3584 
Q 2853 3584 3176 3315 
Q 3500 3047 3500 2534 
Q 3500 2431 3484 2292 
Q 3469 2153 3438 1997 
z
M 2816 1759 
L 2241 1759 
Q 1534 1759 1195 1570 
Q 856 1381 856 984 
Q 856 709 1029 553 
Q 1203 397 1509 397 
Q 1978 397 2328 733 
Q 2678 1069 2791 1631 
L 2816 1759 
z
" transform="scale(0.015625)"/>
      <path id="DejaVuSans-Oblique-3" transform="scale(0.015625)"/>
      <path id="DejaVuSans-Oblique-48" d="M 3078 2063 
Q 3088 2113 3092 2166 
Q 3097 2219 3097 2272 
Q 3097 2653 2873 2875 
Q 2650 3097 2266 3097 
Q 1838 3097 1509 2826 
Q 1181 2556 1013 2059 
L 3078 2063 
z
M 3578 1613 
L 903 1613 
Q 884 1494 878 1425 
Q 872 1356 872 1306 
Q 872 872 1139 634 
Q 1406 397 1894 397 
Q 2269 397 2603 481 
Q 2938 566 3225 728 
L 3116 159 
Q 2806 34 2476 -28 
Q 2147 -91 1806 -91 
Q 1078 -91 686 257 
Q 294 606 294 1247 
Q 294 1794 489 2264 
Q 684 2734 1063 3103 
Q 1306 3334 1642 3459 
Q 1978 3584 2356 3584 
Q 2950 3584 3301 3228 
Q 3653 2872 3653 2272 
Q 3653 2128 3634 1964 
Q 3616 1800 3578 1613 
z
" transform="scale(0.015625)"/>
      <path id="DejaVuSans-Oblique-46" d="M 3431 3366 
L 3316 2797 
Q 3109 2947 2876 3022 
Q 2644 3097 2394 3097 
Q 2119 3097 1870 3000 
Q 1622 2903 1453 2725 
Q 1184 2453 1037 2087 
Q 891 1722 891 1331 
Q 891 859 1127 628 
Q 1363 397 1844 397 
Q 2081 397 2348 469 
Q 2616 541 2906 684 
L 2797 116 
Q 2547 13 2283 -39 
Q 2019 -91 1741 -91 
Q 1044 -91 669 257 
Q 294 606 294 1253 
Q 294 1797 489 2255 
Q 684 2713 1069 3078 
Q 1331 3328 1684 3456 
Q 2038 3584 2456 3584 
Q 2700 3584 2940 3529 
Q 3181 3475 3431 3366 
z
" transform="scale(0.015625)"/>
      <path id="DejaVuSans-Oblique-4f" d="M 1172 4863 
L 1747 4863 
L 800 0 
L 225 0 
L 1172 4863 
z
" transform="scale(0.015625)"/>
      <path id="DejaVuSans-Oblique-54" d="M 2669 525 
Q 2438 222 2123 65 
Q 1809 -91 1428 -91 
Q 897 -91 595 267 
Q 294 625 294 1253 
Q 294 1759 480 2231 
Q 666 2703 1013 3078 
Q 1238 3322 1530 3453 
Q 1822 3584 2144 3584 
Q 2531 3584 2781 3431 
Q 3031 3278 3144 2969 
L 3244 3494 
L 3822 3494 
L 2888 -1319 
L 2309 -1319 
L 2669 525 
z
M 891 1338 
Q 891 875 1084 633 
Q 1278 391 1644 391 
Q 2188 391 2572 911 
Q 2956 1431 2956 2175 
Q 2956 2625 2757 2864 
Q 2559 3103 2188 3103 
Q 1916 3103 1684 2976 
Q 1453 2850 1281 2606 
Q 1100 2350 995 2006 
Q 891 1663 891 1338 
z
" transform="scale(0.015625)"/>
      <path id="DejaVuSans-Oblique-58" d="M 428 1388 
L 838 3500 
L 1416 3500 
L 1006 1409 
Q 975 1256 961 1147 
Q 947 1038 947 966 
Q 947 700 1109 554 
Q 1272 409 1569 409 
Q 2031 409 2368 721 
Q 2706 1034 2809 1563 
L 3194 3500 
L 3769 3500 
L 3091 0 
L 2516 0 
L 2631 550 
Q 2388 244 2052 76 
Q 1716 -91 1338 -91 
Q 878 -91 622 161 
Q 366 413 366 863 
Q 366 956 381 1097 
Q 397 1238 428 1388 
z
" transform="scale(0.015625)"/>
      <path id="DejaVuSans-Oblique-55" d="M 2853 2969 
Q 2766 3016 2653 3041 
Q 2541 3066 2413 3066 
Q 1953 3066 1609 2717 
Q 1266 2369 1153 1784 
L 800 0 
L 225 0 
L 909 3500 
L 1484 3500 
L 1375 2956 
Q 1603 3259 1920 3421 
Q 2238 3584 2597 3584 
Q 2691 3584 2781 3573 
Q 2872 3563 2963 3538 
L 2853 2969 
z
" transform="scale(0.015625)"/>
      <path id="DejaVuSans-Oblique-45" d="M 3169 2138 
Q 3169 2591 2961 2847 
Q 2753 3103 2388 3103 
Q 2122 3103 1889 2973 
Q 1656 2844 1484 2597 
Q 1303 2338 1198 1995 
Q 1094 1653 1094 1313 
Q 1094 881 1298 636 
Q 1503 391 1863 391 
Q 2134 391 2365 517 
Q 2597 644 2772 891 
Q 2950 1147 3059 1487 
Q 3169 1828 3169 2138 
z
M 1381 2969 
Q 1594 3256 1914 3420 
Q 2234 3584 2584 3584 
Q 3122 3584 3439 3221 
Q 3756 2859 3756 2241 
Q 3756 1734 3570 1259 
Q 3384 784 3041 416 
Q 2816 172 2522 40 
Q 2228 -91 1906 -91 
Q 1566 -91 1316 65 
Q 1066 222 909 531 
L 806 0 
L 231 0 
L 1178 4863 
L 1753 4863 
L 1381 2969 
z
" transform="scale(0.015625)"/>
      <path id="DejaVuSans-Oblique-b23" d="M 2541 4688 
L 2822 4688 
L 4047 3456 
L 3672 3081 
L 2947 3813 
L 2947 0 
L 2416 0 
L 2416 3813 
L 1684 3081 
L 1309 3456 
L 2541 4688 
z
" transform="scale(0.015625)"/>
     </defs>
     <use xlink:href="#DejaVuSans-Oblique-50"/>
     <use xlink:href="#DejaVuSans-Oblique-4c" transform="translate(97.40625 0)"/>
     <use xlink:href="#DejaVuSans-Oblique-56" transform="translate(125.1875 0)"/>
     <use xlink:href="#DejaVuSans-Oblique-50" transform="translate(177.28125 0)"/>
     <use xlink:href="#DejaVuSans-Oblique-44" transform="translate(274.6875 0)"/>
     <use xlink:href="#DejaVuSans-Oblique-3" transform="translate(335.96875 0)"/>
     <use xlink:href="#DejaVuSans-Oblique-48" transform="translate(367.75 0)"/>
     <use xlink:href="#DejaVuSans-Oblique-56" transform="translate(429.28125 0)"/>
     <use xlink:href="#DejaVuSans-Oblique-46" transform="translate(481.375 0)"/>
     <use xlink:href="#DejaVuSans-Oblique-44" transform="translate(536.359375 0)"/>
     <use xlink:href="#DejaVuSans-Oblique-4f" transform="translate(597.640625 0)"/>
     <use xlink:href="#DejaVuSans-Oblique-44" transform="translate(625.421875 0)"/>
     <use xlink:href="#DejaVuSans-Oblique-3" transform="translate(686.703125 0)"/>
     <use xlink:href="#DejaVuSans-Oblique-54" transform="translate(718.484375 0)"/>
     <use xlink:href="#DejaVuSans-Oblique-58" transform="translate(781.96875 0)"/>
     <use xlink:href="#DejaVuSans-Oblique-48" transform="translate(845.34375 0)"/>
     <use xlink:href="#DejaVuSans-Oblique-3" transform="translate(906.875 0)"/>
     <use xlink:href="#DejaVuSans-Oblique-44" transform="translate(938.65625 0)"/>
     <use xlink:href="#DejaVuSans-Oblique-55" transform="translate(999.9375 0)"/>
     <use xlink:href="#DejaVuSans-Oblique-55" transform="translate(1041.046875 0)"/>
     <use xlink:href="#DejaVuSans-Oblique-4c" transform="translate(1082.15625 0)"/>
     <use xlink:href="#DejaVuSans-Oblique-45" transform="translate(1109.9375 0)"/>
     <use xlink:href="#DejaVuSans-Oblique-44" transform="translate(1173.421875 0)"/>
     <use xlink:href="#DejaVuSans-Oblique-3" transform="translate(1234.703125 0)"/>
     <use xlink:href="#DejaVuSans-Oblique-b23" transform="translate(1266.484375 0)"/>
    </g>
   </g>
   <g id="patch_4">
    <path d="M 552.969363 408.260409 
Q 552.969363 418.759087 552.969363 429.257766 
" style="fill: none; stroke: #5c6b80; stroke-width: 0.8; stroke-linecap: round"/>
   </g>
   <g id="text_22">
    <!-- pico 162 mil · dic 2024 -->
    <g style="fill: #9fb0c6" transform="translate(507.260613 403.337644) scale(0.08 -0.08)">
     <defs>
      <path id="DejaVuSans-50" d="M 3328 2828 
Q 3544 3216 3844 3400 
Q 4144 3584 4550 3584 
Q 5097 3584 5394 3201 
Q 5691 2819 5691 2113 
L 5691 0 
L 5113 0 
L 5113 2094 
Q 5113 2597 4934 2840 
Q 4756 3084 4391 3084 
Q 3944 3084 3684 2787 
Q 3425 2491 3425 1978 
L 3425 0 
L 2847 0 
L 2847 2094 
Q 2847 2600 2669 2842 
Q 2491 3084 2119 3084 
Q 1678 3084 1418 2786 
Q 1159 2488 1159 1978 
L 1159 0 
L 581 0 
L 581 3500 
L 1159 3500 
L 1159 2956 
Q 1356 3278 1631 3431 
Q 1906 3584 2284 3584 
Q 2666 3584 2933 3390 
Q 3200 3197 3328 2828 
z
" transform="scale(0.015625)"/>
     </defs>
     <use xlink:href="#DejaVuSans-53"/>
     <use xlink:href="#DejaVuSans-4c" transform="translate(63.484375 0)"/>
     <use xlink:href="#DejaVuSans-46" transform="translate(91.265625 0)"/>
     <use xlink:href="#DejaVuSans-52" transform="translate(146.25 0)"/>
     <use xlink:href="#DejaVuSans-3" transform="translate(207.4375 0)"/>
     <use xlink:href="#DejaVuSans-14" transform="translate(239.21875 0)"/>
     <use xlink:href="#DejaVuSans-19" transform="translate(302.84375 0)"/>
     <use xlink:href="#DejaVuSans-15" transform="translate(366.46875 0)"/>
     <use xlink:href="#DejaVuSans-3" transform="translate(430.09375 0)"/>
     <use xlink:href="#DejaVuSans-50" transform="translate(461.875 0)"/>
     <use xlink:href="#DejaVuSans-4c" transform="translate(559.28125 0)"/>
     <use xlink:href="#DejaVuSans-4f" transform="translate(587.0625 0)"/>
     <use xlink:href="#DejaVuSans-3" transform="translate(614.84375 0)"/>
     <use xlink:href="#DejaVuSans-79" transform="translate(646.625 0)"/>
     <use xlink:href="#DejaVuSans-3" transform="translate(678.40625 0)"/>
     <use xlink:href="#DejaVuSans-47" transform="translate(710.1875 0)"/>
     <use xlink:href="#DejaVuSans-4c" transform="translate(773.671875 0)"/>
     <use xlink:href="#DejaVuSans-46" transform="translate(801.453125 0)"/>
     <use xlink:href="#DejaVuSans-3" transform="translate(856.4375 0)"/>
     <use xlink:href="#DejaVuSans-15" transform="translate(888.21875 0)"/>
     <use xlink:href="#DejaVuSans-13" transform="translate(951.84375 0)"/>
     <use xlink:href="#DejaVuSans-15" transform="translate(1015.46875 0)"/>
     <use xlink:href="#DejaVuSans-17" transform="translate(1079.09375 0)"/>
    </g>
   </g>
  </g>
  <g id="text_23">
   <!-- Cancún y Tulum, a la misma escala -->
   <g style="fill: #ffffff" transform="translate(44.64 29.029578) scale(0.155 -0.155)">
    <defs>
     <path id="DejaVuSans-Bold-5c" d="M 78 3500 
L 1197 3500 
L 2138 1125 
L 2938 3500 
L 4056 3500 
L 2584 -331 
Q 2363 -916 2067 -1148 
Q 1772 -1381 1288 -1381 
L 641 -1381 
L 641 -647 
L 991 -647 
Q 1275 -647 1404 -556 
Q 1534 -466 1606 -231 
L 1638 -134 
L 78 3500 
z
" transform="scale(0.015625)"/>
     <path id="DejaVuSans-Bold-f" d="M 653 1209 
L 1778 1209 
L 1778 256 
L 1006 -909 
L 341 -909 
L 653 256 
L 653 1209 
z
" transform="scale(0.015625)"/>
     <path id="DejaVuSans-Bold-4c" d="M 538 3500 
L 1656 3500 
L 1656 0 
L 538 0 
L 538 3500 
z
M 538 4863 
L 1656 4863 
L 1656 3950 
L 538 3950 
L 538 4863 
z
" transform="scale(0.015625)"/>
     <path id="DejaVuSans-Bold-56" d="M 3272 3391 
L 3272 2541 
Q 2913 2691 2578 2766 
Q 2244 2841 1947 2841 
Q 1628 2841 1473 2761 
Q 1319 2681 1319 2516 
Q 1319 2381 1436 2309 
Q 1553 2238 1856 2203 
L 2053 2175 
Q 2913 2066 3209 1816 
Q 3506 1566 3506 1031 
Q 3506 472 3093 190 
Q 2681 -91 1863 -91 
Q 1516 -91 1145 -36 
Q 775 19 384 128 
L 384 978 
Q 719 816 1070 734 
Q 1422 653 1784 653 
Q 2113 653 2278 743 
Q 2444 834 2444 1013 
Q 2444 1163 2330 1236 
Q 2216 1309 1875 1350 
L 1678 1375 
Q 931 1469 631 1722 
Q 331 1975 331 2491 
Q 331 3047 712 3315 
Q 1094 3584 1881 3584 
Q 2191 3584 2531 3537 
Q 2872 3491 3272 3391 
z
" transform="scale(0.015625)"/>
     <path id="DejaVuSans-Bold-48" d="M 4031 1759 
L 4031 1441 
L 1416 1441 
Q 1456 1047 1700 850 
Q 1944 653 2381 653 
Q 2734 653 3104 758 
Q 3475 863 3866 1075 
L 3866 213 
Q 3469 63 3072 -14 
Q 2675 -91 2278 -91 
Q 1328 -91 801 392 
Q 275 875 275 1747 
Q 275 2603 792 3093 
Q 1309 3584 2216 3584 
Q 3041 3584 3536 3087 
Q 4031 2591 4031 1759 
z
M 2881 2131 
Q 2881 2450 2695 2645 
Q 2509 2841 2209 2841 
Q 1884 2841 1681 2658 
Q 1478 2475 1428 2131 
L 2881 2131 
z
" transform="scale(0.015625)"/>
    </defs>
    <use xlink:href="#DejaVuSans-Bold-26"/>
    <use xlink:href="#DejaVuSans-Bold-44" transform="translate(73.390625 0)"/>
    <use xlink:href="#DejaVuSans-Bold-51" transform="translate(140.875 0)"/>
    <use xlink:href="#DejaVuSans-Bold-46" transform="translate(212.0625 0)"/>
    <use xlink:href="#DejaVuSans-Bold-bc" transform="translate(271.34375 0)"/>
    <use xlink:href="#DejaVuSans-Bold-51" transform="translate(342.53125 0)"/>
    <use xlink:href="#DejaVuSans-Bold-3" transform="translate(413.71875 0)"/>
    <use xlink:href="#DejaVuSans-Bold-5c" transform="translate(448.53125 0)"/>
    <use xlink:href="#DejaVuSans-Bold-3" transform="translate(513.71875 0)"/>
    <use xlink:href="#DejaVuSans-Bold-37" transform="translate(548.53125 0)"/>
    <use xlink:href="#DejaVuSans-Bold-58" transform="translate(605.765625 0)"/>
    <use xlink:href="#DejaVuSans-Bold-4f" transform="translate(676.953125 0)"/>
    <use xlink:href="#DejaVuSans-Bold-58" transform="translate(711.234375 0)"/>
    <use xlink:href="#DejaVuSans-Bold-50" transform="translate(782.421875 0)"/>
    <use xlink:href="#DejaVuSans-Bold-f" transform="translate(886.625 0)"/>
    <use xlink:href="#DejaVuSans-Bold-3" transform="translate(924.609375 0)"/>
    <use xlink:href="#DejaVuSans-Bold-44" transform="translate(959.421875 0)"/>
    <use xlink:href="#DejaVuSans-Bold-3" transform="translate(1026.90625 0)"/>
    <use xlink:href="#DejaVuSans-Bold-4f" transform="translate(1061.71875 0)"/>
    <use xlink:href="#DejaVuSans-Bold-44" transform="translate(1096 0)"/>
    <use xlink:href="#DejaVuSans-Bold-3" transform="translate(1163.484375 0)"/>
    <use xlink:href="#DejaVuSans-Bold-50" transform="translate(1198.296875 0)"/>
    <use xlink:href="#DejaVuSans-Bold-4c" transform="translate(1302.5 0)"/>
    <use xlink:href="#DejaVuSans-Bold-56" transform="translate(1336.78125 0)"/>
    <use xlink:href="#DejaVuSans-Bold-50" transform="translate(1396.296875 0)"/>
    <use xlink:href="#DejaVuSans-Bold-44" transform="translate(1500.5 0)"/>
    <use xlink:href="#DejaVuSans-Bold-3" transform="translate(1567.984375 0)"/>
    <use xlink:href="#DejaVuSans-Bold-48" transform="translate(1602.796875 0)"/>
    <use xlink:href="#DejaVuSans-Bold-56" transform="translate(1670.625 0)"/>
    <use xlink:href="#DejaVuSans-Bold-46" transform="translate(1730.140625 0)"/>
    <use xlink:href="#DejaVuSans-Bold-44" transform="translate(1789.421875 0)"/>
    <use xlink:href="#DejaVuSans-Bold-4f" transform="translate(1856.90625 0)"/>
    <use xlink:href="#DejaVuSans-Bold-44" transform="translate(1891.1875 0)"/>
   </g>
  </g>
  <g id="text_24">
   <!-- Pasajeros por mes. La escala compartida muestra el tamaño real de Tulum frente a Cancún. -->
   <g style="fill: #9fb0c6" transform="translate(44.64 42.212837) scale(0.1 -0.1)">
    <defs>
     <path id="DejaVuSans-33" d="M 1259 4147 
L 1259 2394 
L 2053 2394 
Q 2494 2394 2734 2622 
Q 2975 2850 2975 3272 
Q 2975 3691 2734 3919 
Q 2494 4147 2053 4147 
L 1259 4147 
z
M 628 4666 
L 2053 4666 
Q 2838 4666 3239 4311 
Q 3641 3956 3641 3272 
Q 3641 2581 3239 2228 
Q 2838 1875 2053 1875 
L 1259 1875 
L 1259 0 
L 628 0 
L 628 4666 
z
" transform="scale(0.015625)"/>
     <path id="DejaVuSans-2f" d="M 628 4666 
L 1259 4666 
L 1259 531 
L 3531 531 
L 3531 0 
L 628 0 
L 628 4666 
z
" transform="scale(0.015625)"/>
     <path id="DejaVuSans-58" d="M 544 1381 
L 544 3500 
L 1119 3500 
L 1119 1403 
Q 1119 906 1312 657 
Q 1506 409 1894 409 
Q 2359 409 2629 706 
Q 2900 1003 2900 1516 
L 2900 3500 
L 3475 3500 
L 3475 0 
L 2900 0 
L 2900 538 
Q 2691 219 2414 64 
Q 2138 -91 1772 -91 
Q 1169 -91 856 284 
Q 544 659 544 1381 
z
M 1991 3584 
L 1991 3584 
z
" transform="scale(0.015625)"/>
     <path id="DejaVuSans-37" d="M -19 4666 
L 3928 4666 
L 3928 4134 
L 2272 4134 
L 2272 0 
L 1638 0 
L 1638 4134 
L -19 4134 
L -19 4666 
z
" transform="scale(0.015625)"/>
     <path id="DejaVuSans-49" d="M 2375 4863 
L 2375 4384 
L 1825 4384 
Q 1516 4384 1395 4259 
Q 1275 4134 1275 3809 
L 1275 3500 
L 2222 3500 
L 2222 3053 
L 1275 3053 
L 1275 0 
L 697 0 
L 697 3053 
L 147 3053 
L 147 3500 
L 697 3500 
L 697 3744 
Q 697 4328 969 4595 
Q 1241 4863 1831 4863 
L 2375 4863 
z
" transform="scale(0.015625)"/>
     <path id="DejaVuSans-26" d="M 4122 4306 
L 4122 3641 
Q 3803 3938 3442 4084 
Q 3081 4231 2675 4231 
Q 1875 4231 1450 3742 
Q 1025 3253 1025 2328 
Q 1025 1406 1450 917 
Q 1875 428 2675 428 
Q 3081 428 3442 575 
Q 3803 722 4122 1019 
L 4122 359 
Q 3791 134 3420 21 
Q 3050 -91 2638 -91 
Q 1578 -91 968 557 
Q 359 1206 359 2328 
Q 359 3453 968 4101 
Q 1578 4750 2638 4750 
Q 3056 4750 3426 4639 
Q 3797 4528 4122 4306 
z
" transform="scale(0.015625)"/>
     <path id="DejaVuSans-bc" d="M 544 1381 
L 544 3500 
L 1119 3500 
L 1119 1403 
Q 1119 906 1312 657 
Q 1506 409 1894 409 
Q 2359 409 2629 706 
Q 2900 1003 2900 1516 
L 2900 3500 
L 3475 3500 
L 3475 0 
L 2900 0 
L 2900 538 
Q 2691 219 2414 64 
Q 2138 -91 1772 -91 
Q 1169 -91 856 284 
Q 544 659 544 1381 
z
M 1991 3584 
L 1991 3584 
z
M 2418 5119 
L 3040 5119 
L 2022 3944 
L 1543 3944 
L 2418 5119 
z
" transform="scale(0.015625)"/>
    </defs>
    <use xlink:href="#DejaVuSans-33"/>
    <use xlink:href="#DejaVuSans-44" transform="translate(55.8125 0)"/>
    <use xlink:href="#DejaVuSans-56" transform="translate(117.09375 0)"/>
    <use xlink:href="#DejaVuSans-44" transform="translate(169.1875 0)"/>
    <use xlink:href="#DejaVuSans-4d" transform="translate(230.46875 0)"/>
    <use xlink:href="#DejaVuSans-48" transform="translate(258.25 0)"/>
    <use xlink:href="#DejaVuSans-55" transform="translate(319.78125 0)"/>
    <use xlink:href="#DejaVuSans-52" transform="translate(358.6875 0)"/>
    <use xlink:href="#DejaVuSans-56" transform="translate(419.875 0)"/>
    <use xlink:href="#DejaVuSans-3" transform="translate(471.96875 0)"/>
    <use xlink:href="#DejaVuSans-53" transform="translate(503.75 0)"/>
    <use xlink:href="#DejaVuSans-52" transform="translate(567.234375 0)"/>
    <use xlink:href="#DejaVuSans-55" transform="translate(628.421875 0)"/>
    <use xlink:href="#DejaVuSans-3" transform="translate(669.53125 0)"/>
    <use xlink:href="#DejaVuSans-50" transform="translate(701.3125 0)"/>
    <use xlink:href="#DejaVuSans-48" transform="translate(798.71875 0)"/>
    <use xlink:href="#DejaVuSans-56" transform="translate(860.25 0)"/>
    <use xlink:href="#DejaVuSans-11" transform="translate(912.34375 0)"/>
    <use xlink:href="#DejaVuSans-3" transform="translate(944.125 0)"/>
    <use xlink:href="#DejaVuSans-2f" transform="translate(975.90625 0)"/>
    <use xlink:href="#DejaVuSans-44" transform="translate(1031.625 0)"/>
    <use xlink:href="#DejaVuSans-3" transform="translate(1092.90625 0)"/>
    <use xlink:href="#DejaVuSans-48" transform="translate(1124.6875 0)"/>
    <use xlink:href="#DejaVuSans-56" transform="translate(1186.21875 0)"/>
    <use xlink:href="#DejaVuSans-46" transform="translate(1238.3125 0)"/>
    <use xlink:href="#DejaVuSans-44" transform="translate(1293.296875 0)"/>
    <use xlink:href="#DejaVuSans-4f" transform="translate(1354.578125 0)"/>
    <use xlink:href="#DejaVuSans-44" transform="translate(1382.359375 0)"/>
    <use xlink:href="#DejaVuSans-3" transform="translate(1443.640625 0)"/>
    <use xlink:href="#DejaVuSans-46" transform="translate(1475.421875 0)"/>
    <use xlink:href="#DejaVuSans-52" transform="translate(1530.40625 0)"/>
    <use xlink:href="#DejaVuSans-50" transform="translate(1591.59375 0)"/>
    <use xlink:href="#DejaVuSans-53" transform="translate(1689 0)"/>
    <use xlink:href="#DejaVuSans-44" transform="translate(1752.484375 0)"/>
    <use xlink:href="#DejaVuSans-55" transform="translate(1813.765625 0)"/>
    <use xlink:href="#DejaVuSans-57" transform="translate(1854.875 0)"/>
    <use xlink:href="#DejaVuSans-4c" transform="translate(1894.078125 0)"/>
    <use xlink:href="#DejaVuSans-47" transform="translate(1921.859375 0)"/>
    <use xlink:href="#DejaVuSans-44" transform="translate(1985.34375 0)"/>
    <use xlink:href="#DejaVuSans-3" transform="translate(2046.625 0)"/>
    <use xlink:href="#DejaVuSans-50" transform="translate(2078.40625 0)"/>
    <use xlink:href="#DejaVuSans-58" transform="translate(2175.8125 0)"/>
    <use xlink:href="#DejaVuSans-48" transform="translate(2239.1875 0)"/>
    <use xlink:href="#DejaVuSans-56" transform="translate(2300.71875 0)"/>
    <use xlink:href="#DejaVuSans-57" transform="translate(2352.8125 0)"/>
    <use xlink:href="#DejaVuSans-55" transform="translate(2392.015625 0)"/>
    <use xlink:href="#DejaVuSans-44" transform="translate(2433.125 0)"/>
    <use xlink:href="#DejaVuSans-3" transform="translate(2494.40625 0)"/>
    <use xlink:href="#DejaVuSans-48" transform="translate(2526.1875 0)"/>
    <use xlink:href="#DejaVuSans-4f" transform="translate(2587.71875 0)"/>
    <use xlink:href="#DejaVuSans-3" transform="translate(2615.5 0)"/>
    <use xlink:href="#DejaVuSans-57" transform="translate(2647.28125 0)"/>
    <use xlink:href="#DejaVuSans-44" transform="translate(2686.484375 0)"/>
    <use xlink:href="#DejaVuSans-50" transform="translate(2747.765625 0)"/>
    <use xlink:href="#DejaVuSans-44" transform="translate(2845.171875 0)"/>
    <use xlink:href="#DejaVuSans-b3" transform="translate(2906.453125 0)"/>
    <use xlink:href="#DejaVuSans-52" transform="translate(2969.828125 0)"/>
    <use xlink:href="#DejaVuSans-3" transform="translate(3031.015625 0)"/>
    <use xlink:href="#DejaVuSans-55" transform="translate(3062.796875 0)"/>
    <use xlink:href="#DejaVuSans-48" transform="translate(3101.703125 0)"/>
    <use xlink:href="#DejaVuSans-44" transform="translate(3163.234375 0)"/>
    <use xlink:href="#DejaVuSans-4f" transform="translate(3224.515625 0)"/>
    <use xlink:href="#DejaVuSans-3" transform="translate(3252.296875 0)"/>
    <use xlink:href="#DejaVuSans-47" transform="translate(3284.078125 0)"/>
    <use xlink:href="#DejaVuSans-48" transform="translate(3347.5625 0)"/>
    <use xlink:href="#DejaVuSans-3" transform="translate(3409.09375 0)"/>
    <use xlink:href="#DejaVuSans-37" transform="translate(3440.875 0)"/>
    <use xlink:href="#DejaVuSans-58" transform="translate(3486.765625 0)"/>
    <use xlink:href="#DejaVuSans-4f" transform="translate(3550.140625 0)"/>
    <use xlink:href="#DejaVuSans-58" transform="translate(3577.921875 0)"/>
    <use xlink:href="#DejaVuSans-50" transform="translate(3641.296875 0)"/>
    <use xlink:href="#DejaVuSans-3" transform="translate(3738.703125 0)"/>
    <use xlink:href="#DejaVuSans-49" transform="translate(3770.484375 0)"/>
    <use xlink:href="#DejaVuSans-55" transform="translate(3805.6875 0)"/>
    <use xlink:href="#DejaVuSans-48" transform="translate(3844.59375 0)"/>
    <use xlink:href="#DejaVuSans-51" transform="translate(3906.125 0)"/>
    <use xlink:href="#DejaVuSans-57" transform="translate(3969.5 0)"/>
    <use xlink:href="#DejaVuSans-48" transform="translate(4008.703125 0)"/>
    <use xlink:href="#DejaVuSans-3" transform="translate(4070.234375 0)"/>
    <use xlink:href="#DejaVuSans-44" transform="translate(4102.015625 0)"/>
    <use xlink:href="#DejaVuSans-3" transform="translate(4163.296875 0)"/>
    <use xlink:href="#DejaVuSans-26" transform="translate(4195.078125 0)"/>
    <use xlink:href="#DejaVuSans-44" transform="translate(4264.90625 0)"/>
    <use xlink:href="#DejaVuSans-51" transform="translate(4326.1875 0)"/>
    <use xlink:href="#DejaVuSans-46" transform="translate(4389.5625 0)"/>
    <use xlink:href="#DejaVuSans-bc" transform="translate(4444.546875 0)"/>
    <use xlink:href="#DejaVuSans-51" transform="translate(4507.921875 0)"/>
    <use xlink:href="#DejaVuSans-11" transform="translate(4571.296875 0)"/>
   </g>
  </g>
  <g id="text_25">
   <!-- Cancún: ASUR. Tulum: AFAC (Estadística Operativa de Aeropuertos). Dos fuentes oficiales; en Cancún, donde se traslapan, difieren ~0.5% (2024–2025). Gráfico: Riviera Maya Economic Pulse. -->
   <g style="fill: #5c6b80" transform="translate(44.64 460.116666) scale(0.074 -0.074)">
    <defs>
     <path id="DejaVuSans-1d" d="M 750 794 
L 1409 794 
L 1409 0 
L 750 0 
L 750 794 
z
M 750 3309 
L 1409 3309 
L 1409 2516 
L 750 2516 
L 750 3309 
z
" transform="scale(0.015625)"/>
     <path id="DejaVuSans-36" d="M 3425 4513 
L 3425 3897 
Q 3066 4069 2747 4153 
Q 2428 4238 2131 4238 
Q 1616 4238 1336 4038 
Q 1056 3838 1056 3469 
Q 1056 3159 1242 3001 
Q 1428 2844 1947 2747 
L 2328 2669 
Q 3034 2534 3370 2195 
Q 3706 1856 3706 1288 
Q 3706 609 3251 259 
Q 2797 -91 1919 -91 
Q 1588 -91 1214 -16 
Q 841 59 441 206 
L 441 856 
Q 825 641 1194 531 
Q 1563 422 1919 422 
Q 2459 422 2753 634 
Q 3047 847 3047 1241 
Q 3047 1584 2836 1778 
Q 2625 1972 2144 2069 
L 1759 2144 
Q 1053 2284 737 2584 
Q 422 2884 422 3419 
Q 422 4038 858 4394 
Q 1294 4750 2059 4750 
Q 2388 4750 2728 4690 
Q 3069 4631 3425 4513 
z
" transform="scale(0.015625)"/>
     <path id="DejaVuSans-38" d="M 556 4666 
L 1191 4666 
L 1191 1831 
Q 1191 1081 1462 751 
Q 1734 422 2344 422 
Q 2950 422 3222 751 
Q 3494 1081 3494 1831 
L 3494 4666 
L 4128 4666 
L 4128 1753 
Q 4128 841 3676 375 
Q 3225 -91 2344 -91 
Q 1459 -91 1007 375 
Q 556 841 556 1753 
L 556 4666 
z
" transform="scale(0.015625)"/>
     <path id="DejaVuSans-35" d="M 2841 2188 
Q 3044 2119 3236 1894 
Q 3428 1669 3622 1275 
L 4263 0 
L 3584 0 
L 2988 1197 
Q 2756 1666 2539 1819 
Q 2322 1972 1947 1972 
L 1259 1972 
L 1259 0 
L 628 0 
L 628 4666 
L 2053 4666 
Q 2853 4666 3247 4331 
Q 3641 3997 3641 3322 
Q 3641 2881 3436 2590 
Q 3231 2300 2841 2188 
z
M 1259 4147 
L 1259 2491 
L 2053 2491 
Q 2509 2491 2742 2702 
Q 2975 2913 2975 3322 
Q 2975 3731 2742 3939 
Q 2509 4147 2053 4147 
L 1259 4147 
z
" transform="scale(0.015625)"/>
     <path id="DejaVuSans-29" d="M 628 4666 
L 3309 4666 
L 3309 4134 
L 1259 4134 
L 1259 2759 
L 3109 2759 
L 3109 2228 
L 1259 2228 
L 1259 0 
L 628 0 
L 628 4666 
z
" transform="scale(0.015625)"/>
     <path id="DejaVuSans-b" d="M 1984 4856 
Q 1566 4138 1362 3434 
Q 1159 2731 1159 2009 
Q 1159 1288 1364 580 
Q 1569 -128 1984 -844 
L 1484 -844 
Q 1016 -109 783 600 
Q 550 1309 550 2009 
Q 550 2706 781 3412 
Q 1013 4119 1484 4856 
L 1984 4856 
z
" transform="scale(0.015625)"/>
     <path id="DejaVuSans-28" d="M 628 4666 
L 3578 4666 
L 3578 4134 
L 1259 4134 
L 1259 2753 
L 3481 2753 
L 3481 2222 
L 1259 2222 
L 1259 531 
L 3634 531 
L 3634 0 
L 628 0 
L 628 4666 
z
" transform="scale(0.015625)"/>
     <path id="DejaVuSans-af" d="M 1325 5119 
L 1947 5119 
L 929 3944 
L 450 3944 
L 1325 5119 
z
M 603 3500 
L 1178 3500 
L 1178 0 
L 603 0 
L 603 3500 
z
M 891 3584 
L 891 3584 
z
" transform="scale(0.015625)"/>
     <path id="DejaVuSans-32" d="M 2522 4238 
Q 1834 4238 1429 3725 
Q 1025 3213 1025 2328 
Q 1025 1447 1429 934 
Q 1834 422 2522 422 
Q 3209 422 3611 934 
Q 4013 1447 4013 2328 
Q 4013 3213 3611 3725 
Q 3209 4238 2522 4238 
z
M 2522 4750 
Q 3503 4750 4090 4092 
Q 4678 3434 4678 2328 
Q 4678 1225 4090 567 
Q 3503 -91 2522 -91 
Q 1538 -91 948 565 
Q 359 1222 359 2328 
Q 359 3434 948 4092 
Q 1538 4750 2522 4750 
z
" transform="scale(0.015625)"/>
     <path id="DejaVuSans-59" d="M 191 3500 
L 800 3500 
L 1894 563 
L 2988 3500 
L 3597 3500 
L 2284 0 
L 1503 0 
L 191 3500 
z
" transform="scale(0.015625)"/>
     <path id="DejaVuSans-c" d="M 513 4856 
L 1013 4856 
Q 1481 4119 1714 3412 
Q 1947 2706 1947 2009 
Q 1947 1309 1714 600 
Q 1481 -109 1013 -844 
L 513 -844 
Q 928 -128 1133 580 
Q 1338 1288 1338 2009 
Q 1338 2731 1133 3434 
Q 928 4138 513 4856 
z
" transform="scale(0.015625)"/>
     <path id="DejaVuSans-27" d="M 1259 4147 
L 1259 519 
L 2022 519 
Q 2988 519 3436 956 
Q 3884 1394 3884 2338 
Q 3884 3275 3436 3711 
Q 2988 4147 2022 4147 
L 1259 4147 
z
M 628 4666 
L 1925 4666 
Q 3281 4666 3915 4102 
Q 4550 3538 4550 2338 
Q 4550 1131 3912 565 
Q 3275 0 1925 0 
L 628 0 
L 628 4666 
z
" transform="scale(0.015625)"/>
     <path id="DejaVuSans-1e" d="M 750 3309 
L 1409 3309 
L 1409 2516 
L 750 2516 
L 750 3309 
z
M 750 794 
L 1409 794 
L 1409 256 
L 897 -744 
L 494 -744 
L 750 256 
L 750 794 
z
" transform="scale(0.015625)"/>
     <path id="DejaVuSans-f" d="M 750 794 
L 1409 794 
L 1409 256 
L 897 -744 
L 494 -744 
L 750 256 
L 750 794 
z
" transform="scale(0.015625)"/>
     <path id="DejaVuSans-61" d="M 4684 2553 
L 4684 1997 
Q 4356 1750 4076 1644 
Q 3797 1538 3494 1538 
Q 3150 1538 2694 1722 
Q 2659 1734 2644 1741 
Q 2622 1750 2575 1766 
Q 2091 1959 1797 1959 
Q 1522 1959 1253 1839 
Q 984 1719 678 1459 
L 678 2016 
Q 1006 2263 1286 2370 
Q 1566 2478 1869 2478 
Q 2213 2478 2672 2291 
Q 2703 2278 2719 2272 
Q 2744 2263 2788 2247 
Q 3272 2053 3566 2053 
Q 3834 2053 4098 2172 
Q 4363 2291 4684 2553 
z
" transform="scale(0.015625)"/>
     <path id="DejaVuSans-af5" d="M 313 1978 
L 2888 1978 
L 2888 1528 
L 313 1528 
L 313 1978 
z
" transform="scale(0.015625)"/>
     <path id="DejaVuSans-2a" d="M 3809 666 
L 3809 1919 
L 2778 1919 
L 2778 2438 
L 4434 2438 
L 4434 434 
Q 4069 175 3628 42 
Q 3188 -91 2688 -91 
Q 1594 -91 976 548 
Q 359 1188 359 2328 
Q 359 3472 976 4111 
Q 1594 4750 2688 4750 
Q 3144 4750 3555 4637 
Q 3966 4525 4313 4306 
L 4313 3634 
Q 3963 3931 3569 4081 
Q 3175 4231 2741 4231 
Q 1884 4231 1454 3753 
Q 1025 3275 1025 2328 
Q 1025 1384 1454 906 
Q 1884 428 2741 428 
Q 3075 428 3337 486 
Q 3600 544 3809 666 
z
" transform="scale(0.015625)"/>
     <path id="DejaVuSans-5c" d="M 2059 -325 
Q 1816 -950 1584 -1140 
Q 1353 -1331 966 -1331 
L 506 -1331 
L 506 -850 
L 844 -850 
Q 1081 -850 1212 -737 
Q 1344 -625 1503 -206 
L 1606 56 
L 191 3500 
L 800 3500 
L 1894 763 
L 2988 3500 
L 3597 3500 
L 2059 -325 
z
" transform="scale(0.015625)"/>
    </defs>
    <use xlink:href="#DejaVuSans-26"/>
    <use xlink:href="#DejaVuSans-44" transform="translate(69.828125 0)"/>
    <use xlink:href="#DejaVuSans-51" transform="translate(131.109375 0)"/>
    <use xlink:href="#DejaVuSans-46" transform="translate(194.484375 0)"/>
    <use xlink:href="#DejaVuSans-bc" transform="translate(249.46875 0)"/>
    <use xlink:href="#DejaVuSans-51" transform="translate(312.84375 0)"/>
    <use xlink:href="#DejaVuSans-1d" transform="translate(376.21875 0)"/>
    <use xlink:href="#DejaVuSans-3" transform="translate(409.90625 0)"/>
    <use xlink:href="#DejaVuSans-24" transform="translate(441.6875 0)"/>
    <use xlink:href="#DejaVuSans-36" transform="translate(510.09375 0)"/>
    <use xlink:href="#DejaVuSans-38" transform="translate(573.578125 0)"/>
    <use xlink:href="#DejaVuSans-35" transform="translate(646.765625 0)"/>
    <use xlink:href="#DejaVuSans-11" transform="translate(712.6875 0)"/>
    <use xlink:href="#DejaVuSans-3" transform="translate(744.46875 0)"/>
    <use xlink:href="#DejaVuSans-37" transform="translate(776.25 0)"/>
    <use xlink:href="#DejaVuSans-58" transform="translate(822.140625 0)"/>
    <use xlink:href="#DejaVuSans-4f" transform="translate(885.515625 0)"/>
    <use xlink:href="#DejaVuSans-58" transform="translate(913.296875 0)"/>
    <use xlink:href="#DejaVuSans-50" transform="translate(976.671875 0)"/>
    <use xlink:href="#DejaVuSans-1d" transform="translate(1074.078125 0)"/>
    <use xlink:href="#DejaVuSans-3" transform="translate(1107.765625 0)"/>
    <use xlink:href="#DejaVuSans-24" transform="translate(1139.546875 0)"/>
    <use xlink:href="#DejaVuSans-29" transform="translate(1207.953125 0)"/>
    <use xlink:href="#DejaVuSans-24" transform="translate(1256.296875 0)"/>
    <use xlink:href="#DejaVuSans-26" transform="translate(1322.953125 0)"/>
    <use xlink:href="#DejaVuSans-3" transform="translate(1392.78125 0)"/>
    <use xlink:href="#DejaVuSans-b" transform="translate(1424.5625 0)"/>
    <use xlink:href="#DejaVuSans-28" transform="translate(1463.578125 0)"/>
    <use xlink:href="#DejaVuSans-56" transform="translate(1526.765625 0)"/>
    <use xlink:href="#DejaVuSans-57" transform="translate(1578.859375 0)"/>
    <use xlink:href="#DejaVuSans-44" transform="translate(1618.0625 0)"/>
    <use xlink:href="#DejaVuSans-47" transform="translate(1679.34375 0)"/>
    <use xlink:href="#DejaVuSans-af" transform="translate(1742.828125 0)"/>
    <use xlink:href="#DejaVuSans-56" transform="translate(1770.609375 0)"/>
    <use xlink:href="#DejaVuSans-57" transform="translate(1822.703125 0)"/>
    <use xlink:href="#DejaVuSans-4c" transform="translate(1861.90625 0)"/>
    <use xlink:href="#DejaVuSans-46" transform="translate(1889.6875 0)"/>
    <use xlink:href="#DejaVuSans-44" transform="translate(1944.671875 0)"/>
    <use xlink:href="#DejaVuSans-3" transform="translate(2005.953125 0)"/>
    <use xlink:href="#DejaVuSans-32" transform="translate(2037.734375 0)"/>
    <use xlink:href="#DejaVuSans-53" transform="translate(2116.453125 0)"/>
    <use xlink:href="#DejaVuSans-48" transform="translate(2179.9375 0)"/>
    <use xlink:href="#DejaVuSans-55" transform="translate(2241.46875 0)"/>
    <use xlink:href="#DejaVuSans-44" transform="translate(2282.578125 0)"/>
    <use xlink:href="#DejaVuSans-57" transform="translate(2343.859375 0)"/>
    <use xlink:href="#DejaVuSans-4c" transform="translate(2383.0625 0)"/>
    <use xlink:href="#DejaVuSans-59" transform="translate(2410.84375 0)"/>
    <use xlink:href="#DejaVuSans-44" transform="translate(2470.03125 0)"/>
    <use xlink:href="#DejaVuSans-3" transform="translate(2531.3125 0)"/>
    <use xlink:href="#DejaVuSans-47" transform="translate(2563.09375 0)"/>
    <use xlink:href="#DejaVuSans-48" transform="translate(2626.578125 0)"/>
    <use xlink:href="#DejaVuSans-3" transform="translate(2688.109375 0)"/>
    <use xlink:href="#DejaVuSans-24" transform="translate(2719.890625 0)"/>
    <use xlink:href="#DejaVuSans-48" transform="translate(2786.546875 0)"/>
    <use xlink:href="#DejaVuSans-55" transform="translate(2848.078125 0)"/>
    <use xlink:href="#DejaVuSans-52" transform="translate(2886.984375 0)"/>
    <use xlink:href="#DejaVuSans-53" transform="translate(2948.171875 0)"/>
    <use xlink:href="#DejaVuSans-58" transform="translate(3011.65625 0)"/>
    <use xlink:href="#DejaVuSans-48" transform="translate(3075.03125 0)"/>
    <use xlink:href="#DejaVuSans-55" transform="translate(3136.5625 0)"/>
    <use xlink:href="#DejaVuSans-57" transform="translate(3177.671875 0)"/>
    <use xlink:href="#DejaVuSans-52" transform="translate(3216.875 0)"/>
    <use xlink:href="#DejaVuSans-56" transform="translate(3278.0625 0)"/>
    <use xlink:href="#DejaVuSans-c" transform="translate(3330.15625 0)"/>
    <use xlink:href="#DejaVuSans-11" transform="translate(3369.171875 0)"/>
    <use xlink:href="#DejaVuSans-3" transform="translate(3400.953125 0)"/>
    <use xlink:href="#DejaVuSans-27" transform="translate(3432.734375 0)"/>
    <use xlink:href="#DejaVuSans-52" transform="translate(3509.734375 0)"/>
    <use xlink:href="#DejaVuSans-56" transform="translate(3570.921875 0)"/>
    <use xlink:href="#DejaVuSans-3" transform="translate(3623.015625 0)"/>
    <use xlink:href="#DejaVuSans-49" transform="translate(3654.796875 0)"/>
    <use xlink:href="#DejaVuSans-58" transform="translate(3690 0)"/>
    <use xlink:href="#DejaVuSans-48" transform="translate(3753.375 0)"/>
    <use xlink:href="#DejaVuSans-51" transform="translate(3814.90625 0)"/>
    <use xlink:href="#DejaVuSans-57" transform="translate(3878.28125 0)"/>
    <use xlink:href="#DejaVuSans-48" transform="translate(3917.484375 0)"/>
    <use xlink:href="#DejaVuSans-56" transform="translate(3979.015625 0)"/>
    <use xlink:href="#DejaVuSans-3" transform="translate(4031.109375 0)"/>
    <use xlink:href="#DejaVuSans-52" transform="translate(4062.890625 0)"/>
    <use xlink:href="#DejaVuSans-13af" transform="translate(4124.078125 0)"/>
    <use xlink:href="#DejaVuSans-46" transform="translate(4187.0625 0)"/>
    <use xlink:href="#DejaVuSans-4c" transform="translate(4242.046875 0)"/>
    <use xlink:href="#DejaVuSans-44" transform="translate(4269.828125 0)"/>
    <use xlink:href="#DejaVuSans-4f" transform="translate(4331.109375 0)"/>
    <use xlink:href="#DejaVuSans-48" transform="translate(4358.890625 0)"/>
    <use xlink:href="#DejaVuSans-56" transform="translate(4420.421875 0)"/>
    <use xlink:href="#DejaVuSans-1e" transform="translate(4472.515625 0)"/>
    <use xlink:href="#DejaVuSans-3" transform="translate(4506.203125 0)"/>
    <use xlink:href="#DejaVuSans-48" transform="translate(4537.984375 0)"/>
    <use xlink:href="#DejaVuSans-51" transform="translate(4599.515625 0)"/>
    <use xlink:href="#DejaVuSans-3" transform="translate(4662.890625 0)"/>
    <use xlink:href="#DejaVuSans-26" transform="translate(4694.671875 0)"/>
    <use xlink:href="#DejaVuSans-44" transform="translate(4764.5 0)"/>
    <use xlink:href="#DejaVuSans-51" transform="translate(4825.78125 0)"/>
    <use xlink:href="#DejaVuSans-46" transform="translate(4889.15625 0)"/>
    <use xlink:href="#DejaVuSans-bc" transform="translate(4944.140625 0)"/>
    <use xlink:href="#DejaVuSans-51" transform="translate(5007.515625 0)"/>
    <use xlink:href="#DejaVuSans-f" transform="translate(5070.890625 0)"/>
    <use xlink:href="#DejaVuSans-3" transform="translate(5102.671875 0)"/>
    <use xlink:href="#DejaVuSans-47" transform="translate(5134.453125 0)"/>
    <use xlink:href="#DejaVuSans-52" transform="translate(5197.9375 0)"/>
    <use xlink:href="#DejaVuSans-51" transform="translate(5259.125 0)"/>
    <use xlink:href="#DejaVuSans-47" transform="translate(5322.5 0)"/>
    <use xlink:href="#DejaVuSans-48" transform="translate(5385.984375 0)"/>
    <use xlink:href="#DejaVuSans-3" transform="translate(5447.515625 0)"/>
    <use xlink:href="#DejaVuSans-56" transform="translate(5479.296875 0)"/>
    <use xlink:href="#DejaVuSans-48" transform="translate(5531.390625 0)"/>
    <use xlink:href="#DejaVuSans-3" transform="translate(5592.921875 0)"/>
    <use xlink:href="#DejaVuSans-57" transform="translate(5624.703125 0)"/>
    <use xlink:href="#DejaVuSans-55" transform="translate(5663.90625 0)"/>
    <use xlink:href="#DejaVuSans-44" transform="translate(5705.015625 0)"/>
    <use xlink:href="#DejaVuSans-56" transform="translate(5766.296875 0)"/>
    <use xlink:href="#DejaVuSans-4f" transform="translate(5818.390625 0)"/>
    <use xlink:href="#DejaVuSans-44" transform="translate(5846.171875 0)"/>
    <use xlink:href="#DejaVuSans-53" transform="translate(5907.453125 0)"/>
    <use xlink:href="#DejaVuSans-44" transform="translate(5970.9375 0)"/>
    <use xlink:href="#DejaVuSans-51" transform="translate(6032.21875 0)"/>
    <use xlink:href="#DejaVuSans-f" transform="translate(6095.59375 0)"/>
    <use xlink:href="#DejaVuSans-3" transform="translate(6127.375 0)"/>
    <use xlink:href="#DejaVuSans-47" transform="translate(6159.15625 0)"/>
    <use xlink:href="#DejaVuSans-4c" transform="translate(6222.640625 0)"/>
    <use xlink:href="#DejaVuSans-13af" transform="translate(6250.421875 0)"/>
    <use xlink:href="#DejaVuSans-48" transform="translate(6313.40625 0)"/>
    <use xlink:href="#DejaVuSans-55" transform="translate(6374.9375 0)"/>
    <use xlink:href="#DejaVuSans-48" transform="translate(6413.84375 0)"/>
    <use xlink:href="#DejaVuSans-51" transform="translate(6475.375 0)"/>
    <use xlink:href="#DejaVuSans-3" transform="translate(6538.75 0)"/>
    <use xlink:href="#DejaVuSans-61" transform="translate(6570.53125 0)"/>
    <use xlink:href="#DejaVuSans-13" transform="translate(6654.328125 0)"/>
    <use xlink:href="#DejaVuSans-11" transform="translate(6717.953125 0)"/>
    <use xlink:href="#DejaVuSans-18" transform="translate(6749.734375 0)"/>
    <use xlink:href="#DejaVuSans-8" transform="translate(6813.359375 0)"/>
    <use xlink:href="#DejaVuSans-3" transform="translate(6908.375 0)"/>
    <use xlink:href="#DejaVuSans-b" transform="translate(6940.15625 0)"/>
    <use xlink:href="#DejaVuSans-15" transform="translate(6979.171875 0)"/>
    <use xlink:href="#DejaVuSans-13" transform="translate(7042.796875 0)"/>
    <use xlink:href="#DejaVuSans-15" transform="translate(7106.421875 0)"/>
    <use xlink:href="#DejaVuSans-17" transform="translate(7170.046875 0)"/>
    <use xlink:href="#DejaVuSans-af5" transform="translate(7233.671875 0)"/>
    <use xlink:href="#DejaVuSans-15" transform="translate(7283.671875 0)"/>
    <use xlink:href="#DejaVuSans-13" transform="translate(7347.296875 0)"/>
    <use xlink:href="#DejaVuSans-15" transform="translate(7410.921875 0)"/>
    <use xlink:href="#DejaVuSans-18" transform="translate(7474.546875 0)"/>
    <use xlink:href="#DejaVuSans-c" transform="translate(7538.171875 0)"/>
    <use xlink:href="#DejaVuSans-11" transform="translate(7577.1875 0)"/>
    <use xlink:href="#DejaVuSans-3" transform="translate(7608.96875 0)"/>
    <use xlink:href="#DejaVuSans-2a" transform="translate(7640.75 0)"/>
    <use xlink:href="#DejaVuSans-55" transform="translate(7718.234375 0)"/>
    <use xlink:href="#DejaVuSans-a3" transform="translate(7759.34375 0)"/>
    <use xlink:href="#DejaVuSans-13af" transform="translate(7820.625 0)"/>
    <use xlink:href="#DejaVuSans-46" transform="translate(7883.609375 0)"/>
    <use xlink:href="#DejaVuSans-52" transform="translate(7938.59375 0)"/>
    <use xlink:href="#DejaVuSans-1d" transform="translate(7999.78125 0)"/>
    <use xlink:href="#DejaVuSans-3" transform="translate(8033.46875 0)"/>
    <use xlink:href="#DejaVuSans-35" transform="translate(8065.25 0)"/>
    <use xlink:href="#DejaVuSans-4c" transform="translate(8134.734375 0)"/>
    <use xlink:href="#DejaVuSans-59" transform="translate(8162.515625 0)"/>
    <use xlink:href="#DejaVuSans-4c" transform="translate(8221.703125 0)"/>
    <use xlink:href="#DejaVuSans-48" transform="translate(8249.484375 0)"/>
    <use xlink:href="#DejaVuSans-55" transform="translate(8311.015625 0)"/>
    <use xlink:href="#DejaVuSans-44" transform="translate(8352.125 0)"/>
    <use xlink:href="#DejaVuSans-3" transform="translate(8413.40625 0)"/>
    <use xlink:href="#DejaVuSans-30" transform="translate(8445.1875 0)"/>
    <use xlink:href="#DejaVuSans-44" transform="translate(8531.46875 0)"/>
    <use xlink:href="#DejaVuSans-5c" transform="translate(8592.75 0)"/>
    <use xlink:href="#DejaVuSans-44" transform="translate(8651.9375 0)"/>
    <use xlink:href="#DejaVuSans-3" transform="translate(8713.21875 0)"/>
    <use xlink:href="#DejaVuSans-28" transform="translate(8745 0)"/>
    <use xlink:href="#DejaVuSans-46" transform="translate(8808.1875 0)"/>
    <use xlink:href="#DejaVuSans-52" transform="translate(8863.171875 0)"/>
    <use xlink:href="#DejaVuSans-51" transform="translate(8924.359375 0)"/>
    <use xlink:href="#DejaVuSans-52" transform="translate(8987.734375 0)"/>
    <use xlink:href="#DejaVuSans-50" transform="translate(9048.921875 0)"/>
    <use xlink:href="#DejaVuSans-4c" transform="translate(9146.328125 0)"/>
    <use xlink:href="#DejaVuSans-46" transform="translate(9174.109375 0)"/>
    <use xlink:href="#DejaVuSans-3" transform="translate(9229.09375 0)"/>
    <use xlink:href="#DejaVuSans-33" transform="translate(9260.875 0)"/>
    <use xlink:href="#DejaVuSans-58" transform="translate(9319.421875 0)"/>
    <use xlink:href="#DejaVuSans-4f" transform="translate(9382.796875 0)"/>
    <use xlink:href="#DejaVuSans-56" transform="translate(9410.578125 0)"/>
    <use xlink:href="#DejaVuSans-48" transform="translate(9462.671875 0)"/>
    <use xlink:href="#DejaVuSans-11" transform="translate(9524.203125 0)"/>
   </g>
  </g>
 </g>
 <defs>
  <clipPath id="p024803a717">
   <rect x="44.64" y="54.648" width="655.2" height="179.865421"/>
  </clipPath>
  <clipPath id="p4e40c592da">
   <rect x="44.64" y="259.694579" width="655.2" height="179.865421"/>
  </clipPath>
 </defs>
</svg>
